<?xml version="1.0" encoding="UTF-8" standalone="no"?>
<!DOCTYPE svg PUBLIC "-//W3C//DTD SVG 1.1//EN" "http://www.w3.org/Graphics/SVG/1.1/DTD/svg11.dtd">
<svg width="100%" height="100%" viewBox="0 0 1280 720" version="1.1" xmlns="http://www.w3.org/2000/svg" xmlns:xlink="http://www.w3.org/1999/xlink" xml:space="preserve" xmlns:serif="http://www.serif.com/" style="fill-rule:evenodd;clip-rule:evenodd;stroke-linejoin:round;stroke-miterlimit:2;">
    <g>
        <g transform="matrix(7.73913,0,0,7.73913,44.2609,379.478)">
            <path d="M43,35L29.195,35C29.79,38.301 31.768,40.572 33.596,42L36,42C36.553,42 37,42.447 37,43C37,43.553 36.553,44 36,44L12,44C11.447,44 11,43.553 11,43C11,42.447 11.447,42 12,42L14.403,42C16.23,40.572 18.21,38.301 18.804,35L5,35C2.791,35 1,33.209 1,31L1,8C1,5.791 2.791,4 5,4L43,4C45.209,4 47,5.791 47,8L47,31C47,33.209 45.209,35 43,35ZM17.397,42L30.602,42C29.007,40.318 27.587,38.024 27.143,35L20.856,35C20.412,38.024 18.992,40.318 17.397,42ZM45,8C45,6.896 44.104,6 43,6L5,6C3.896,6 3,6.896 3,8L3,27L45,27L45,8ZM45,29L3,29L3,31C3,32.104 3.896,33 5,33L43,33C44.104,33 45,32.104 45,31L45,29ZM24,32C23.447,32 23,31.553 23,31C23,30.447 23.447,30 24,30C24.553,30 25,30.447 25,31C25,31.553 24.553,32 24,32Z" style="fill:rgb(191,191,191);"/>
            <clipPath id="_clip1">
                <path d="M43,35L29.195,35C29.79,38.301 31.768,40.572 33.596,42L36,42C36.553,42 37,42.447 37,43C37,43.553 36.553,44 36,44L12,44C11.447,44 11,43.553 11,43C11,42.447 11.447,42 12,42L14.403,42C16.23,40.572 18.21,38.301 18.804,35L5,35C2.791,35 1,33.209 1,31L1,8C1,5.791 2.791,4 5,4L43,4C45.209,4 47,5.791 47,8L47,31C47,33.209 45.209,35 43,35ZM17.397,42L30.602,42C29.007,40.318 27.587,38.024 27.143,35L20.856,35C20.412,38.024 18.992,40.318 17.397,42ZM45,8C45,6.896 44.104,6 43,6L5,6C3.896,6 3,6.896 3,8L3,27L45,27L45,8ZM45,29L3,29L3,31C3,32.104 3.896,33 5,33L43,33C44.104,33 45,32.104 45,31L45,29ZM24,32C23.447,32 23,31.553 23,31C23,30.447 23.447,30 24,30C24.553,30 25,30.447 25,31C25,31.553 24.553,32 24,32Z"/>
            </clipPath>
            <g clip-path="url(#_clip1)">
                <g transform="matrix(0.129213,0,0,0.129213,-5.7191,-49.0337)">
                    <path d="M230,627.13C225.72,627.13 222.261,623.671 222.261,619.391C222.261,615.112 225.72,611.652 230,611.652C234.28,611.652 237.739,615.112 237.739,619.391C237.739,623.671 234.28,627.13 230,627.13Z" style="fill:white;"/>
                </g>
            </g>
        </g>
        <g transform="matrix(1.02322,0,0,1.02322,-5.33954,-14.3794)">
            <path d="M392.522,603.913L392.522,619.391C392.522,627.935 385.587,634.87 377.043,634.87L82.957,634.87C74.413,634.87 67.478,627.935 67.478,619.391L67.478,603.913L392.522,603.913ZM230,627.13C234.28,627.13 237.739,623.671 237.739,619.391C237.739,615.112 234.28,611.652 230,611.652C225.72,611.652 222.261,615.112 222.261,619.391C222.261,623.671 225.72,627.13 230,627.13Z" style="fill:rgb(191,191,191);"/>
        </g>
        <g transform="matrix(0.429952,0,0,0.429952,-39.0525,412.764)">
            <g transform="matrix(5.97828,0,0,5.97828,290.916,130.417)">
                <path d="M27.703,25.306C27.507,27.461 25.993,29.267 23.906,29.838L17.369,31.626C16.473,31.871 15.529,31.871 14.633,31.626L8.096,29.838C6.009,29.267 4.495,27.461 4.299,25.306L2.514,5.655C2.382,4.204 2.867,2.764 3.849,1.689C4.831,0.613 6.221,0 7.678,0L24.324,0C25.781,0 27.171,0.613 28.153,1.689C29.135,2.764 29.62,4.204 29.488,5.655L27.703,25.306ZM24.363,6L7.607,6L8,10L8.619,17L19.503,17L19.148,20.984L16,21.99L12.857,20.984L12.648,19L8.803,19L9.262,23.987L16,25.99L22.728,23.986L23.718,13L12.252,13L12.002,10L24,10L24.363,6Z" style="fill:rgb(255,161,129);"/>
            </g>
            <g transform="matrix(0.398806,0,0,0.398806,509.315,124.418)">
                <path d="M132.473,16.379L380.218,16.379C402.025,16.379 422.829,25.539 437.553,41.623C452.278,57.708 459.569,79.238 457.648,100.959L431.77,393.544C428.922,425.746 406.44,452.824 375.311,461.545L277.325,488.999C263.606,492.842 249.096,492.842 235.378,488.997L137.33,461.52C106.199,452.796 83.718,425.713 80.875,393.509L55.042,100.948C53.124,79.228 60.417,57.701 75.142,41.619C89.866,25.537 110.668,16.379 132.473,16.379ZM383.824,157.206L388.531,104.425L124.162,104.425L127.592,154.338L331.597,153.766L327.654,207.414L132.81,209.72L138.061,259.845L323.215,259.333L315.192,332.633L256.317,348.545L256.288,348.572L197.503,332.664L193.565,288.672L140.597,288.672L148.138,373.489L256.257,403.51L256.351,403.483L364.523,373.489L379.023,211.304L383.824,157.206Z" style="fill:rgb(117,194,255);"/>
            </g>
            <g transform="matrix(0.413408,0,0,0.413408,744.815,119.668)">
                <path d="M410.918,26.001C452.383,26.001 485.998,59.616 485.998,101.081L485.998,410.919C485.998,452.384 452.383,485.999 410.918,485.999L101.082,485.999C59.617,485.999 26.002,452.384 26.002,410.919L26.002,101.081C26.002,59.616 59.617,26.001 101.082,26.001L410.918,26.001ZM276.331,384.759L276.331,237.21L233.104,237.21L233.104,384.144C233.104,405.808 224.066,411.352 209.897,411.352C195.009,411.352 188.848,401.188 182.071,389.175L146.853,410.43C157.122,432.094 177.144,449.959 211.745,449.959C250.045,449.959 276.331,429.526 276.331,384.759ZM378.598,449.959C419.565,449.959 450.164,428.602 450.162,389.792C450.162,353.65 429.524,337.528 392.765,321.818L381.985,317.197C363.4,309.088 355.391,303.85 355.391,290.912C355.391,280.441 363.4,272.431 376.03,272.431C388.454,272.431 396.463,277.666 403.855,290.912L437.534,269.35C423.364,244.296 403.65,234.747 376.132,234.747C337.629,234.747 312.884,259.39 312.884,291.837C312.884,327.054 333.523,343.791 364.737,357.037L375.518,361.657C395.334,370.386 407.038,375.62 407.038,390.407C407.038,402.83 395.54,411.762 377.674,411.762C356.419,411.762 344.304,400.571 335.063,385.476L299.844,405.808C312.474,430.86 338.451,449.959 378.598,449.959Z" style="fill:rgb(255,237,128);"/>
            </g>
        </g>
    </g>
    <g transform="matrix(5.8,0,0,5.8,716,50)">
        <path d="M10,0C4.5,0 0,4.5 0,10C0,15.5 4.5,20 10,20C15.5,20 20,15.5 20,10C20,4.5 15.5,0 10,0ZM16.9,6L14,6C13.7,4.7 13.2,3.6 12.6,2.4C14.4,3.1 16,4.3 16.9,6ZM10,2C10.8,3.2 11.5,4.5 11.9,6L8.1,6C8.5,4.6 9.2,3.2 10,2ZM2.3,12C2.1,11.4 2,10.7 2,10C2,9.3 2.1,8.6 2.3,8L5.7,8C5.6,8.7 5.6,9.3 5.6,10C5.6,10.7 5.7,11.3 5.7,12L2.3,12ZM3.1,14L6,14C6.3,15.3 6.8,16.4 7.4,17.6C5.6,16.9 4,15.7 3.1,14ZM6,6L3.1,6C4.1,4.3 5.6,3.1 7.4,2.4C6.8,3.6 6.3,4.7 6,6ZM10,18C9.2,16.8 8.5,15.5 8.1,14L11.9,14C11.5,15.4 10.8,16.8 10,18ZM12.3,12L7.7,12C7.6,11.3 7.5,10.7 7.5,10C7.5,9.3 7.6,8.7 7.7,8L12.4,8C12.5,8.7 12.6,9.3 12.6,10C12.6,10.7 12.4,11.3 12.3,12ZM12.6,17.6C13.2,16.5 13.7,15.3 14,14L16.9,14C16,15.7 14.4,16.9 12.6,17.6ZM14.4,12C14.5,11.3 14.5,10.7 14.5,10C14.5,9.3 14.4,8.7 14.4,8L17.8,8C18,8.6 18.1,9.3 18.1,10C18.1,10.7 18,11.4 17.8,12L14.4,12Z" style="fill:rgb(23,72,121);"/>
    </g>
    <g transform="matrix(3.93879,0,0,3.93879,-221.767,-355.872)">
        <path d="M282.191,119.563C281.785,119.563 281.441,119.204 281.16,118.485L280.246,118.602L280.246,127.532C280.246,127.938 280.144,128.243 279.941,128.446C279.738,128.649 279.473,128.751 279.144,128.751C278.816,128.751 278.551,128.649 278.348,128.446C278.144,128.243 278.043,127.938 278.043,127.532L278.043,118.836C276.48,118.993 275.684,119.071 275.652,119.071C275.371,119.071 275.137,118.969 274.949,118.766C274.762,118.563 274.668,118.282 274.668,117.922C274.668,117.61 274.754,117.368 274.926,117.196C275.098,117.024 275.324,116.907 275.605,116.844C275.621,116.844 275.949,116.821 276.59,116.774L277.879,114.805C277.051,113.977 276.285,113.313 275.582,112.813C275.082,112.438 274.832,112.063 274.832,111.688C274.832,111.329 274.922,111.059 275.101,110.879C275.281,110.7 275.527,110.61 275.84,110.61C276.059,110.61 276.301,110.696 276.566,110.868C277.098,109.946 277.527,109.047 277.855,108.172C278.184,107.251 278.629,106.79 279.191,106.79C279.629,106.79 279.949,106.891 280.152,107.094C280.355,107.297 280.457,107.555 280.457,107.868C280.457,108.055 280.418,108.251 280.34,108.454C280.215,108.766 280.059,109.102 279.871,109.461C279.512,110.118 278.949,111.016 278.184,112.157L279.027,112.93L280.434,110.376C280.668,109.985 280.965,109.751 281.324,109.672C281.387,109.657 281.457,109.649 281.535,109.649C281.957,109.649 282.269,109.751 282.473,109.954C282.66,110.141 282.754,110.399 282.754,110.727C282.754,110.821 282.707,110.961 282.613,111.149C282.613,111.165 282.605,111.184 282.59,111.208C282.574,111.231 282.551,111.274 282.519,111.336C282.488,111.399 282.457,111.469 282.426,111.547C281.988,112.329 281.09,113.711 279.73,115.696L279.004,116.727L280.527,116.633C280.387,116.258 280.305,116.028 280.281,115.942C280.258,115.856 280.246,115.774 280.246,115.696C280.246,115.43 280.324,115.219 280.48,115.063C280.637,114.907 280.879,114.829 281.207,114.829C281.66,114.829 281.988,115.071 282.191,115.555C282.879,117.071 283.223,118.086 283.223,118.602C283.223,118.665 283.219,118.727 283.211,118.79C283.203,118.852 283.191,118.915 283.176,118.977C283.129,119.102 283.059,119.211 282.965,119.305C282.793,119.477 282.535,119.563 282.191,119.563ZM285.941,110.047C285.566,110.047 285.379,110.235 285.379,110.61L285.379,127.461C285.379,127.555 285.375,127.645 285.367,127.731C285.359,127.817 285.34,127.899 285.309,127.977C285.262,128.133 285.184,128.258 285.074,128.352C284.887,128.555 284.625,128.657 284.289,128.657C283.953,128.657 283.687,128.559 283.492,128.364C283.297,128.169 283.199,127.868 283.199,127.461L283.199,110.235C283.184,110.126 283.176,110.008 283.176,109.883C283.176,109.758 283.187,109.61 283.211,109.438C283.234,109.266 283.285,109.086 283.363,108.899C283.66,108.211 284.285,107.868 285.238,107.868C285.348,107.868 285.457,107.876 285.566,107.891L293.488,107.891C293.598,107.876 293.715,107.868 293.84,107.868C293.965,107.868 294.113,107.879 294.285,107.903C294.457,107.926 294.637,107.977 294.824,108.055C295.512,108.368 295.855,109.024 295.855,110.024L295.855,126.196C295.855,126.993 295.656,127.59 295.258,127.989C294.859,128.387 294.301,128.586 293.582,128.586L292.082,128.586C291.316,128.586 290.887,128.282 290.793,127.672C290.777,127.594 290.769,127.516 290.769,127.438C290.769,127.36 290.773,127.286 290.781,127.215C290.789,127.145 290.809,127.071 290.84,126.993C290.887,126.852 290.957,126.735 291.051,126.641C291.269,126.422 291.598,126.313 292.035,126.313L293.09,126.313C293.262,126.313 293.391,126.27 293.476,126.184C293.562,126.098 293.613,125.961 293.629,125.774L293.629,110.633C293.629,110.243 293.434,110.047 293.043,110.047L285.941,110.047ZM292.832,110.915C292.832,111.336 292.496,112.352 291.824,113.961L292.551,113.961C293.238,113.961 293.629,114.235 293.723,114.782C293.738,114.86 293.746,114.961 293.746,115.086C293.746,115.211 293.723,115.336 293.676,115.461C293.629,115.586 293.559,115.696 293.465,115.79C293.262,115.993 292.957,116.094 292.551,116.094L286.246,116.094C285.902,116.094 285.637,116.001 285.449,115.813C285.262,115.626 285.168,115.364 285.168,115.028C285.168,114.692 285.262,114.43 285.449,114.243C285.637,114.055 285.918,113.961 286.293,113.961L289.715,113.961L290.582,110.868C290.66,110.618 290.777,110.415 290.934,110.258C291.137,110.055 291.414,109.954 291.766,109.954C292.117,109.954 292.383,110.044 292.562,110.223C292.742,110.403 292.832,110.633 292.832,110.915ZM286.082,111.219C286.082,110.922 286.176,110.68 286.363,110.493C286.551,110.305 286.832,110.211 287.207,110.211C287.644,110.211 288.051,110.61 288.426,111.407C288.754,112.126 288.918,112.696 288.918,113.118C288.918,113.54 288.746,113.836 288.402,114.008C288.215,114.086 287.988,114.126 287.723,114.126C287.269,114.126 286.934,113.821 286.715,113.211C286.293,112.118 286.082,111.454 286.082,111.219ZM288.66,122.586C288.66,122.977 288.855,123.172 289.246,123.172L290.98,123.196C291.777,123.165 292.203,123.149 292.258,123.149C292.312,123.149 292.387,123.157 292.48,123.172C292.699,123.204 292.879,123.29 293.019,123.43C293.207,123.618 293.301,123.868 293.301,124.18C293.301,124.555 293.172,124.844 292.914,125.047C292.656,125.251 292.309,125.36 291.871,125.376C290.496,125.391 289.777,125.399 289.715,125.399C289.152,125.399 288.664,125.368 288.25,125.305C287.836,125.243 287.504,125.133 287.254,124.977L286.996,124.79C286.699,124.477 286.535,124.047 286.504,123.501L286.504,120.102L286.246,120.102C285.887,120.102 285.613,120.008 285.426,119.821C285.238,119.633 285.144,119.372 285.144,119.036C285.144,118.7 285.238,118.438 285.426,118.251C285.613,118.063 285.887,117.969 286.246,117.969L288.449,117.969L288.449,117.008C288.449,116.68 288.543,116.422 288.73,116.235C288.918,116.047 289.184,115.954 289.527,115.954C289.871,115.954 290.133,116.044 290.312,116.223C290.492,116.403 290.582,116.665 290.582,117.008L290.582,117.969L292.598,117.969C292.973,117.969 293.258,118.067 293.453,118.262C293.648,118.458 293.746,118.719 293.746,119.047C293.746,119.376 293.652,119.626 293.465,119.797C293.277,120.001 292.988,120.102 292.598,120.102L288.66,120.102L288.66,122.586ZM277.551,120.758C277.551,121.571 277.363,122.915 276.988,124.79C276.801,125.727 276.488,126.297 276.051,126.501C275.941,126.547 275.824,126.571 275.699,126.571C275.355,126.571 275.094,126.481 274.914,126.301C274.734,126.122 274.644,125.887 274.644,125.598C274.644,125.309 274.723,124.977 274.879,124.602C275.254,123.586 275.465,122.29 275.512,120.711C275.527,120.29 275.629,119.985 275.816,119.797C276.004,119.61 276.242,119.516 276.531,119.516C276.82,119.516 277.051,119.602 277.223,119.774C277.441,119.993 277.551,120.321 277.551,120.758ZM283.059,124.907L283.059,125.235C283.043,125.422 282.973,125.579 282.848,125.704C282.644,125.907 282.379,126.008 282.051,126.008C281.598,126.008 281.285,125.836 281.113,125.493L281.09,125.446L280.41,120.477L280.41,120.36C280.41,120.141 280.484,119.958 280.633,119.809C280.781,119.661 281.019,119.586 281.348,119.586C281.644,119.586 281.887,119.68 282.074,119.868L282.144,119.938C282.269,120.11 282.473,120.946 282.754,122.446C282.754,122.461 282.855,123.282 283.059,124.907Z" style="fill:rgb(23,72,121);fill-rule:nonzero;"/>
        <path d="M308.184,125.797L308.184,119.751C308.184,118.938 308.379,118.336 308.769,117.946C309.098,117.618 309.598,117.454 310.269,117.454L311.98,117.454L311.98,108.102C311.98,107.696 312.09,107.383 312.309,107.165C312.512,106.961 312.809,106.86 313.199,106.86C313.59,106.86 313.891,106.965 314.101,107.176C314.312,107.387 314.418,107.696 314.418,108.102L314.418,111.243L319.176,111.243C319.676,111.243 320.043,111.36 320.277,111.594C320.48,111.797 320.582,112.071 320.582,112.415C320.582,112.758 320.48,113.032 320.277,113.235C320.043,113.469 319.676,113.586 319.176,113.586L314.418,113.586L314.418,117.454L317.23,117.454C318.074,117.454 318.684,117.649 319.059,118.04C319.387,118.368 319.551,118.86 319.551,119.516L319.551,125.516C319.551,126.36 319.355,126.969 318.965,127.344C318.637,127.672 318.144,127.836 317.488,127.836L310.527,127.836C309.684,127.836 309.066,127.641 308.676,127.251C308.348,126.922 308.184,126.438 308.184,125.797ZM300.051,113.282C299.613,113.282 299.285,113.172 299.066,112.954C298.848,112.735 298.738,112.446 298.738,112.086C298.738,111.586 298.934,111.243 299.324,111.055C299.527,110.961 299.769,110.915 300.051,110.915L302.629,110.915L302.629,108.266C302.629,107.844 302.738,107.524 302.957,107.305C303.176,107.086 303.473,106.977 303.848,106.977C304.379,106.977 304.738,107.172 304.926,107.563C305.019,107.751 305.066,107.985 305.066,108.266L305.066,110.915L307.48,110.915C307.934,110.915 308.269,111.024 308.488,111.243C308.707,111.461 308.816,111.751 308.816,112.11C308.816,112.61 308.621,112.954 308.23,113.141C308.027,113.235 307.777,113.282 307.48,113.282L300.051,113.282ZM298.691,124.766C298.691,124.407 298.801,124.118 299.019,123.899C299.144,123.758 299.316,123.649 299.535,123.571L303.73,122.751L304.199,120.079L304.949,114.594C304.996,114.11 305.184,113.79 305.512,113.633C305.684,113.54 305.879,113.493 306.098,113.493C306.535,113.493 306.855,113.594 307.059,113.797C307.262,114.001 307.363,114.266 307.363,114.594L307.363,114.618L305.887,122.211C306.387,122.071 306.699,121.993 306.824,121.977C306.949,121.961 307.043,121.954 307.105,121.954C307.434,121.954 307.691,122.047 307.879,122.235C308.066,122.422 308.16,122.696 308.16,123.055C308.16,123.633 307.902,124.008 307.387,124.18C306.965,124.352 305.91,124.657 304.223,125.094C301.566,125.782 300.144,126.126 299.957,126.126C299.566,126.126 299.258,126.012 299.031,125.786C298.805,125.559 298.691,125.219 298.691,124.766ZM299.676,114.946C299.676,114.633 299.769,114.383 299.957,114.196C300.144,114.008 300.434,113.915 300.824,113.915C301.34,113.915 301.707,114.219 301.926,114.829L302.16,116.188L302.699,120.969L302.699,121.157C302.699,121.422 302.601,121.645 302.406,121.825C302.211,122.004 301.918,122.094 301.527,122.094C301.23,122.094 300.988,122.001 300.801,121.813C300.551,121.563 300.402,121.165 300.355,120.618C300.246,119.399 300.027,117.579 299.699,115.157C299.684,115.079 299.676,115.008 299.676,114.946ZM316.48,125.563C316.715,125.563 316.887,125.508 316.996,125.399C317.105,125.29 317.168,125.102 317.184,124.836L317.184,120.454C317.184,120.204 317.129,120.024 317.019,119.915C316.91,119.805 316.73,119.743 316.48,119.727L311.23,119.727C310.996,119.727 310.824,119.782 310.715,119.891C310.605,120.001 310.543,120.18 310.527,120.43L310.527,124.86C310.527,125.094 310.582,125.266 310.691,125.376C310.801,125.485 310.98,125.547 311.23,125.563L316.48,125.563Z" style="fill:rgb(23,72,121);fill-rule:nonzero;"/>
        <path d="M322.762,117.102C322.762,116.618 323.012,116.251 323.512,116.001C325.48,115.032 326.598,113.415 326.863,111.149L324.238,111.149C323.832,111.149 323.527,111.047 323.324,110.844C323.121,110.641 323.019,110.376 323.019,110.047C323.019,109.704 323.121,109.43 323.324,109.227C323.527,109.024 323.832,108.922 324.238,108.922L326.98,108.922L326.98,108.571C326.965,108.211 326.957,108.016 326.957,107.985C326.957,107.641 327.059,107.368 327.262,107.165C327.465,106.946 327.758,106.836 328.141,106.836C328.523,106.836 328.809,106.93 328.996,107.118C329.199,107.305 329.309,107.547 329.324,107.844L329.371,108.876L329.371,108.922L331.762,108.922C332.887,108.922 333.582,109.305 333.848,110.071C333.926,110.29 333.965,110.536 333.965,110.809C333.965,111.083 333.957,111.36 333.941,111.641C333.91,112.657 333.848,113.626 333.754,114.547C333.691,115.172 333.621,115.626 333.543,115.907C333.465,116.188 333.383,116.411 333.297,116.575C333.211,116.739 333.09,116.899 332.934,117.055C332.34,117.649 331.348,117.946 329.957,117.946C329.441,117.946 329.059,117.813 328.809,117.547C328.59,117.344 328.48,117.055 328.48,116.68C328.48,116.29 328.605,115.969 328.855,115.719C329.012,115.563 329.207,115.485 329.441,115.485C329.504,115.485 329.66,115.504 329.91,115.544C330.16,115.583 330.387,115.602 330.59,115.602C330.793,115.602 330.91,115.594 330.941,115.579C331.098,115.532 331.207,115.43 331.269,115.274C331.394,115.008 331.488,114.344 331.551,113.282C331.598,112.157 331.621,111.586 331.621,111.571C331.621,111.415 331.59,111.305 331.527,111.243C331.465,111.18 331.363,111.149 331.223,111.149L329.254,111.149C328.941,113.93 327.926,115.954 326.207,117.219C325.223,117.954 324.473,118.321 323.957,118.321C323.582,118.321 323.289,118.215 323.078,118.004C322.867,117.794 322.762,117.493 322.762,117.102ZM343.668,115.368C343.668,116.852 342.973,117.594 341.582,117.594L336.965,117.594C336.168,117.594 335.582,117.407 335.207,117.032C334.879,116.688 334.715,116.188 334.715,115.532L334.715,110.891C334.715,110.094 334.894,109.52 335.254,109.169C335.613,108.817 336.121,108.641 336.777,108.641L341.418,108.641C342.605,108.641 343.324,109.063 343.574,109.907C343.637,110.141 343.668,110.415 343.668,110.727L343.668,115.368ZM340.738,115.274C340.926,115.274 341.059,115.231 341.137,115.145C341.215,115.059 341.262,114.922 341.277,114.735L341.277,111.501C341.277,111.313 341.238,111.18 341.16,111.102C341.066,111.024 340.926,110.977 340.738,110.961L337.621,110.961C337.434,110.961 337.297,111.004 337.211,111.09C337.125,111.176 337.082,111.313 337.082,111.501L337.082,114.735C337.082,114.907 337.125,115.036 337.211,115.122C337.297,115.208 337.434,115.258 337.621,115.274L340.738,115.274ZM334.785,127.555C334.785,128.071 334.598,128.415 334.223,128.586C334.051,128.68 333.84,128.727 333.59,128.727C333.215,128.727 332.926,128.626 332.723,128.422C332.519,128.219 332.418,127.93 332.418,127.555L332.418,123.079C330.324,125.016 327.894,126.493 325.129,127.508C324.535,127.727 324.144,127.836 323.957,127.836C323.426,127.836 323.066,127.641 322.879,127.251C322.785,127.079 322.738,126.891 322.738,126.688C322.738,126.485 322.762,126.313 322.809,126.172C322.871,126.032 322.973,125.899 323.113,125.774C323.316,125.586 323.637,125.422 324.074,125.282C326.793,124.454 329.262,123.141 331.48,121.344L324.332,121.344C323.863,121.344 323.519,121.235 323.301,121.016C323.113,120.829 323.019,120.575 323.019,120.254C323.019,119.934 323.113,119.68 323.301,119.493C323.519,119.274 323.863,119.165 324.332,119.165L332.418,119.165L332.418,118.063C332.418,117.688 332.519,117.399 332.723,117.196C332.926,116.993 333.223,116.891 333.613,116.891C334.238,116.891 334.613,117.149 334.738,117.665C334.769,117.79 334.785,117.922 334.785,118.063L334.785,119.165L342.965,119.165C343.434,119.165 343.777,119.274 343.996,119.493C344.184,119.68 344.277,119.93 344.277,120.243C344.277,120.571 344.184,120.829 343.996,121.016C343.777,121.235 343.434,121.344 342.965,121.344L335.652,121.344C337.434,122.969 339.809,124.188 342.777,125.001C343.98,125.344 344.582,125.836 344.582,126.477C344.582,126.883 344.476,127.192 344.266,127.403C344.055,127.614 343.754,127.719 343.363,127.719C343.098,127.719 342.473,127.532 341.488,127.157C338.691,126.141 336.457,124.797 334.785,123.126L334.785,127.555Z" style="fill:rgb(23,72,121);fill-rule:nonzero;"/>
        <path d="M359.207,107.633L362.605,107.633C363.527,107.633 364.137,107.946 364.434,108.571C364.59,108.868 364.668,109.227 364.668,109.649L364.668,113.586C364.668,113.727 364.707,113.836 364.785,113.915C364.863,113.993 365.019,114.032 365.254,114.032C365.691,114.032 365.934,113.993 365.98,113.915C366.09,113.696 366.152,113.282 366.168,112.672C366.199,111.985 366.434,111.563 366.871,111.407C366.996,111.36 367.117,111.336 367.234,111.336C367.351,111.336 367.449,111.34 367.527,111.348C367.605,111.356 367.684,111.376 367.762,111.407C367.918,111.454 368.051,111.532 368.16,111.641C368.348,111.829 368.441,112.102 368.441,112.461C368.441,114.352 368.121,115.477 367.48,115.836C367.027,116.086 366.215,116.211 365.043,116.211C363.98,116.211 363.238,116.001 362.816,115.579C362.551,115.313 362.418,114.977 362.418,114.571L362.418,110.446C362.418,110.274 362.375,110.145 362.289,110.059C362.203,109.973 362.066,109.922 361.879,109.907L359.816,109.907C359.598,109.907 359.473,109.938 359.441,110.001C359.363,110.204 359.324,110.672 359.324,111.407C359.324,112.813 359.129,113.876 358.738,114.594C357.941,116.063 357.129,116.797 356.301,116.797C355.957,116.797 355.687,116.7 355.492,116.504C355.297,116.309 355.199,116.024 355.199,115.649C355.199,115.493 355.223,115.368 355.269,115.274C355.348,115.102 355.441,114.954 355.551,114.829L355.715,114.688C356.34,114.219 356.73,113.688 356.887,113.094C357.043,112.547 357.121,111.376 357.121,109.579C357.121,109.282 357.152,109.047 357.215,108.876C357.309,108.579 357.449,108.336 357.637,108.149C357.98,107.805 358.504,107.633 359.207,107.633ZM347.793,109.743C347.605,109.555 347.512,109.29 347.512,108.946C347.512,108.602 347.613,108.329 347.816,108.126C348.019,107.922 348.34,107.821 348.777,107.821L353.535,107.821C353.973,107.821 354.297,107.926 354.508,108.137C354.719,108.348 354.824,108.618 354.824,108.946C354.824,109.274 354.719,109.544 354.508,109.754C354.297,109.965 353.973,110.071 353.535,110.071L348.777,110.071C348.34,110.071 348.012,109.961 347.793,109.743ZM346.973,112.93C346.769,112.711 346.668,112.438 346.668,112.11C346.668,111.782 346.773,111.512 346.984,111.301C347.195,111.09 347.519,110.985 347.957,110.985L354.262,110.985C354.715,110.985 355.047,111.09 355.258,111.301C355.469,111.512 355.574,111.782 355.574,112.11C355.574,112.188 355.57,112.262 355.562,112.333C355.555,112.403 355.535,112.469 355.504,112.532C355.457,112.672 355.379,112.797 355.269,112.907C355.051,113.126 354.715,113.235 354.262,113.235L347.957,113.235C347.519,113.235 347.191,113.133 346.973,112.93ZM347.605,115.438C347.59,115.36 347.582,115.274 347.582,115.18C347.582,115.086 347.59,115.001 347.605,114.922C347.652,114.688 347.762,114.501 347.934,114.36C348.152,114.188 348.457,114.102 348.848,114.102L353.465,114.102C353.902,114.102 354.238,114.219 354.473,114.454C354.66,114.641 354.754,114.891 354.754,115.204C354.754,115.532 354.648,115.801 354.437,116.012C354.226,116.223 353.902,116.329 353.465,116.329L348.848,116.329C348.113,116.329 347.699,116.032 347.605,115.438ZM354.355,127.297C354.355,126.688 354.879,126.235 355.926,125.938C357.363,125.547 358.551,125.055 359.488,124.461C358.926,123.852 358.434,123.172 358.012,122.422C357.746,121.969 357.547,121.583 357.414,121.262C357.281,120.942 357.215,120.657 357.215,120.407C357.215,120.157 357.293,119.946 357.449,119.774C357.668,119.571 358.004,119.469 358.457,119.469C358.988,119.469 359.379,119.852 359.629,120.618C360.16,121.665 360.73,122.477 361.34,123.055C361.965,122.493 362.598,121.774 363.238,120.899C363.863,120.071 364.207,119.571 364.269,119.399L364.269,119.352C364.238,119.336 364.176,119.329 364.082,119.329L356.699,119.329C356.09,119.329 355.684,119.133 355.48,118.743C355.402,118.586 355.363,118.399 355.363,118.18C355.363,117.852 355.457,117.594 355.644,117.407C355.879,117.172 356.23,117.055 356.699,117.055L364.926,117.055C365.832,117.055 366.473,117.243 366.848,117.618C367.098,117.868 367.223,118.196 367.223,118.602C367.223,119.118 366.738,120.071 365.769,121.461C364.879,122.743 364.043,123.743 363.262,124.461C364.324,125.024 365.738,125.516 367.504,125.938C368.019,126.063 368.355,126.321 368.512,126.711C368.559,126.852 368.582,127.001 368.582,127.157C368.582,127.61 368.473,127.946 368.254,128.165C368.035,128.383 367.73,128.493 367.34,128.493C366.574,128.493 365.613,128.243 364.457,127.743C363.269,127.227 362.215,126.665 361.293,126.055C360.277,126.696 359.215,127.251 358.105,127.719C356.887,128.251 356.012,128.516 355.48,128.516C355.137,128.516 354.863,128.415 354.66,128.211C354.457,128.008 354.355,127.704 354.355,127.297ZM348.894,119.446C348.441,119.446 348.109,119.34 347.898,119.129C347.687,118.919 347.582,118.649 347.582,118.321C347.582,117.993 347.684,117.727 347.887,117.524C348.09,117.321 348.41,117.219 348.848,117.219L353.465,117.219C354.215,117.219 354.637,117.516 354.73,118.11C354.746,118.188 354.754,118.286 354.754,118.403C354.754,118.52 354.73,118.641 354.684,118.766C354.621,118.938 354.519,119.079 354.379,119.188C354.16,119.36 353.855,119.446 353.465,119.446L348.894,119.446ZM347.535,125.704L347.535,122.469C347.535,121.766 347.719,121.231 348.086,120.864C348.453,120.497 349.004,120.313 349.738,120.313L352.527,120.313C353.262,120.313 353.816,120.501 354.191,120.876C354.566,121.251 354.754,121.782 354.754,122.469L354.754,125.657C354.754,126.36 354.559,126.899 354.168,127.274C353.777,127.649 353.23,127.836 352.527,127.836L349.738,127.836C349.004,127.836 348.453,127.653 348.086,127.286C347.719,126.919 347.535,126.391 347.535,125.704ZM352.41,125.352L352.41,122.774C352.41,122.665 352.387,122.586 352.34,122.54C352.293,122.493 352.215,122.469 352.105,122.469L350.184,122.469C350.059,122.469 349.973,122.493 349.926,122.54C349.879,122.586 349.855,122.665 349.855,122.774L349.855,125.352C349.855,125.477 349.879,125.563 349.926,125.61C349.973,125.657 350.059,125.68 350.184,125.68L352.105,125.68C352.246,125.68 352.332,125.641 352.363,125.563C352.394,125.516 352.41,125.446 352.41,125.352Z" style="fill:rgb(23,72,121);fill-rule:nonzero;"/>
    </g>
    <g transform="matrix(3.94766,0,0,3.94766,-224.202,-199.765)">
        <path d="M282.191,119.563C281.785,119.563 281.441,119.204 281.16,118.485L280.246,118.602L280.246,127.532C280.246,127.938 280.144,128.243 279.941,128.446C279.738,128.649 279.473,128.751 279.144,128.751C278.816,128.751 278.551,128.649 278.348,128.446C278.144,128.243 278.043,127.938 278.043,127.532L278.043,118.836C276.48,118.993 275.684,119.071 275.652,119.071C275.371,119.071 275.137,118.969 274.949,118.766C274.762,118.563 274.668,118.282 274.668,117.922C274.668,117.61 274.754,117.368 274.926,117.196C275.098,117.024 275.324,116.907 275.605,116.844C275.621,116.844 275.949,116.821 276.59,116.774L277.879,114.805C277.051,113.977 276.285,113.313 275.582,112.813C275.082,112.438 274.832,112.063 274.832,111.688C274.832,111.329 274.922,111.059 275.101,110.879C275.281,110.7 275.527,110.61 275.84,110.61C276.059,110.61 276.301,110.696 276.566,110.868C277.098,109.946 277.527,109.047 277.855,108.172C278.184,107.251 278.629,106.79 279.191,106.79C279.629,106.79 279.949,106.891 280.152,107.094C280.355,107.297 280.457,107.555 280.457,107.868C280.457,108.055 280.418,108.251 280.34,108.454C280.215,108.766 280.059,109.102 279.871,109.461C279.512,110.118 278.949,111.016 278.184,112.157L279.027,112.93L280.434,110.376C280.668,109.985 280.965,109.751 281.324,109.672C281.387,109.657 281.457,109.649 281.535,109.649C281.957,109.649 282.269,109.751 282.473,109.954C282.66,110.141 282.754,110.399 282.754,110.727C282.754,110.821 282.707,110.961 282.613,111.149C282.613,111.165 282.605,111.184 282.59,111.208C282.574,111.231 282.551,111.274 282.519,111.336C282.488,111.399 282.457,111.469 282.426,111.547C281.988,112.329 281.09,113.711 279.73,115.696L279.004,116.727L280.527,116.633C280.387,116.258 280.305,116.028 280.281,115.942C280.258,115.856 280.246,115.774 280.246,115.696C280.246,115.43 280.324,115.219 280.48,115.063C280.637,114.907 280.879,114.829 281.207,114.829C281.66,114.829 281.988,115.071 282.191,115.555C282.879,117.071 283.223,118.086 283.223,118.602C283.223,118.665 283.219,118.727 283.211,118.79C283.203,118.852 283.191,118.915 283.176,118.977C283.129,119.102 283.059,119.211 282.965,119.305C282.793,119.477 282.535,119.563 282.191,119.563ZM285.941,110.047C285.566,110.047 285.379,110.235 285.379,110.61L285.379,127.461C285.379,127.555 285.375,127.645 285.367,127.731C285.359,127.817 285.34,127.899 285.309,127.977C285.262,128.133 285.184,128.258 285.074,128.352C284.887,128.555 284.625,128.657 284.289,128.657C283.953,128.657 283.687,128.559 283.492,128.364C283.297,128.169 283.199,127.868 283.199,127.461L283.199,110.235C283.184,110.126 283.176,110.008 283.176,109.883C283.176,109.758 283.187,109.61 283.211,109.438C283.234,109.266 283.285,109.086 283.363,108.899C283.66,108.211 284.285,107.868 285.238,107.868C285.348,107.868 285.457,107.876 285.566,107.891L293.488,107.891C293.598,107.876 293.715,107.868 293.84,107.868C293.965,107.868 294.113,107.879 294.285,107.903C294.457,107.926 294.637,107.977 294.824,108.055C295.512,108.368 295.855,109.024 295.855,110.024L295.855,126.196C295.855,126.993 295.656,127.59 295.258,127.989C294.859,128.387 294.301,128.586 293.582,128.586L292.082,128.586C291.316,128.586 290.887,128.282 290.793,127.672C290.777,127.594 290.769,127.516 290.769,127.438C290.769,127.36 290.773,127.286 290.781,127.215C290.789,127.145 290.809,127.071 290.84,126.993C290.887,126.852 290.957,126.735 291.051,126.641C291.269,126.422 291.598,126.313 292.035,126.313L293.09,126.313C293.262,126.313 293.391,126.27 293.476,126.184C293.562,126.098 293.613,125.961 293.629,125.774L293.629,110.633C293.629,110.243 293.434,110.047 293.043,110.047L285.941,110.047ZM292.832,110.915C292.832,111.336 292.496,112.352 291.824,113.961L292.551,113.961C293.238,113.961 293.629,114.235 293.723,114.782C293.738,114.86 293.746,114.961 293.746,115.086C293.746,115.211 293.723,115.336 293.676,115.461C293.629,115.586 293.559,115.696 293.465,115.79C293.262,115.993 292.957,116.094 292.551,116.094L286.246,116.094C285.902,116.094 285.637,116.001 285.449,115.813C285.262,115.626 285.168,115.364 285.168,115.028C285.168,114.692 285.262,114.43 285.449,114.243C285.637,114.055 285.918,113.961 286.293,113.961L289.715,113.961L290.582,110.868C290.66,110.618 290.777,110.415 290.934,110.258C291.137,110.055 291.414,109.954 291.766,109.954C292.117,109.954 292.383,110.044 292.562,110.223C292.742,110.403 292.832,110.633 292.832,110.915ZM286.082,111.219C286.082,110.922 286.176,110.68 286.363,110.493C286.551,110.305 286.832,110.211 287.207,110.211C287.644,110.211 288.051,110.61 288.426,111.407C288.754,112.126 288.918,112.696 288.918,113.118C288.918,113.54 288.746,113.836 288.402,114.008C288.215,114.086 287.988,114.126 287.723,114.126C287.269,114.126 286.934,113.821 286.715,113.211C286.293,112.118 286.082,111.454 286.082,111.219ZM288.66,122.586C288.66,122.977 288.855,123.172 289.246,123.172L290.98,123.196C291.777,123.165 292.203,123.149 292.258,123.149C292.312,123.149 292.387,123.157 292.48,123.172C292.699,123.204 292.879,123.29 293.019,123.43C293.207,123.618 293.301,123.868 293.301,124.18C293.301,124.555 293.172,124.844 292.914,125.047C292.656,125.251 292.309,125.36 291.871,125.376C290.496,125.391 289.777,125.399 289.715,125.399C289.152,125.399 288.664,125.368 288.25,125.305C287.836,125.243 287.504,125.133 287.254,124.977L286.996,124.79C286.699,124.477 286.535,124.047 286.504,123.501L286.504,120.102L286.246,120.102C285.887,120.102 285.613,120.008 285.426,119.821C285.238,119.633 285.144,119.372 285.144,119.036C285.144,118.7 285.238,118.438 285.426,118.251C285.613,118.063 285.887,117.969 286.246,117.969L288.449,117.969L288.449,117.008C288.449,116.68 288.543,116.422 288.73,116.235C288.918,116.047 289.184,115.954 289.527,115.954C289.871,115.954 290.133,116.044 290.312,116.223C290.492,116.403 290.582,116.665 290.582,117.008L290.582,117.969L292.598,117.969C292.973,117.969 293.258,118.067 293.453,118.262C293.648,118.458 293.746,118.719 293.746,119.047C293.746,119.376 293.652,119.626 293.465,119.797C293.277,120.001 292.988,120.102 292.598,120.102L288.66,120.102L288.66,122.586ZM277.551,120.758C277.551,121.571 277.363,122.915 276.988,124.79C276.801,125.727 276.488,126.297 276.051,126.501C275.941,126.547 275.824,126.571 275.699,126.571C275.355,126.571 275.094,126.481 274.914,126.301C274.734,126.122 274.644,125.887 274.644,125.598C274.644,125.309 274.723,124.977 274.879,124.602C275.254,123.586 275.465,122.29 275.512,120.711C275.527,120.29 275.629,119.985 275.816,119.797C276.004,119.61 276.242,119.516 276.531,119.516C276.82,119.516 277.051,119.602 277.223,119.774C277.441,119.993 277.551,120.321 277.551,120.758ZM283.059,124.907L283.059,125.235C283.043,125.422 282.973,125.579 282.848,125.704C282.644,125.907 282.379,126.008 282.051,126.008C281.598,126.008 281.285,125.836 281.113,125.493L281.09,125.446L280.41,120.477L280.41,120.36C280.41,120.141 280.484,119.958 280.633,119.809C280.781,119.661 281.019,119.586 281.348,119.586C281.644,119.586 281.887,119.68 282.074,119.868L282.144,119.938C282.269,120.11 282.473,120.946 282.754,122.446C282.754,122.461 282.855,123.282 283.059,124.907Z" style="fill:rgb(23,72,121);fill-rule:nonzero;"/>
        <path d="M303.426,124.79C301.785,124.79 300.965,124.079 300.965,122.657C300.965,122.547 300.973,122.438 300.988,122.329L300.988,113.891C300.988,113.188 301.168,112.653 301.527,112.286C301.887,111.919 302.41,111.735 303.098,111.735C303.207,111.735 303.316,111.743 303.426,111.758L307.316,111.758L307.809,110.165L300.051,110.165C299.598,110.165 299.266,110.059 299.055,109.848C298.844,109.637 298.738,109.36 298.738,109.016C298.738,108.532 298.926,108.204 299.301,108.032C299.504,107.938 299.754,107.891 300.051,107.891L319.246,107.891C319.715,107.891 320.055,107.997 320.266,108.208C320.476,108.419 320.582,108.692 320.582,109.028C320.582,109.364 320.488,109.626 320.301,109.813C320.066,110.047 319.715,110.165 319.246,110.165L310.551,110.165L309.965,111.758L316.176,111.758C316.879,111.758 317.414,111.942 317.781,112.309C318.148,112.676 318.332,113.219 318.332,113.938L318.332,122.329C318.332,123.657 317.871,124.446 316.949,124.696C316.699,124.758 316.426,124.79 316.129,124.79L303.426,124.79ZM304.176,113.961C303.848,113.961 303.637,114.008 303.543,114.102C303.512,114.133 303.484,114.2 303.461,114.301C303.437,114.403 303.426,114.532 303.426,114.688L303.426,115.274L315.871,115.274L315.871,114.688C315.871,114.532 315.859,114.399 315.836,114.29C315.812,114.18 315.777,114.118 315.73,114.102C315.652,114.008 315.449,113.961 315.121,113.961L304.176,113.961ZM303.426,118.836L315.871,118.836L315.871,117.454L303.426,117.454L303.426,118.836ZM303.426,121.016L303.426,121.86C303.426,122.172 303.469,122.372 303.555,122.458C303.641,122.544 303.848,122.586 304.176,122.586L315.121,122.586C315.293,122.586 315.43,122.575 315.531,122.551C315.633,122.528 315.707,122.493 315.754,122.446C315.832,122.368 315.871,122.172 315.871,121.86L315.871,121.016L303.426,121.016ZM307.551,125.68C307.551,126.118 307.051,126.54 306.051,126.946C305.769,127.071 305.176,127.278 304.269,127.567C303.363,127.856 302.496,128.11 301.668,128.329C300.84,128.547 300.242,128.657 299.875,128.657C299.508,128.657 299.219,128.551 299.008,128.34C298.797,128.129 298.691,127.821 298.691,127.415C298.691,126.774 299.082,126.383 299.863,126.243C302.269,125.836 304.199,125.329 305.652,124.719C306.027,124.594 306.254,124.532 306.332,124.532C306.879,124.532 307.246,124.711 307.434,125.071C307.512,125.243 307.551,125.446 307.551,125.68ZM320.629,127.344C320.629,127.751 320.519,128.063 320.301,128.282C320.082,128.501 319.762,128.61 319.34,128.61C318.559,128.61 317.082,128.282 314.91,127.626C313.223,127.11 312.16,126.633 311.723,126.196C311.551,126.024 311.465,125.844 311.465,125.657C311.465,125.313 311.559,125.04 311.746,124.836C311.965,124.633 312.269,124.532 312.66,124.532L312.684,124.532L313.152,124.649C314.965,125.29 316.738,125.751 318.473,126.032L319.644,126.219C320.113,126.313 320.418,126.54 320.559,126.899C320.605,127.04 320.629,127.188 320.629,127.344Z" style="fill:rgb(23,72,121);fill-rule:nonzero;"/>
        <path d="M332.863,113.563C332.863,115.016 332.199,115.743 330.871,115.743L325.996,115.743L325.996,127.508C325.996,127.915 325.894,128.219 325.691,128.422C325.488,128.626 325.203,128.727 324.836,128.727C324.469,128.727 324.184,128.626 323.98,128.422C323.777,128.219 323.676,127.915 323.676,127.508L323.676,109.977C323.676,109.165 323.871,108.555 324.262,108.149C324.621,107.79 325.152,107.61 325.855,107.61L330.707,107.61C331.457,107.61 332.004,107.786 332.348,108.137C332.691,108.489 332.863,108.985 332.863,109.626L332.863,113.563ZM343.879,125.915C343.879,127.774 343.09,128.704 341.512,128.704C341.418,128.704 341.316,128.696 341.207,128.68L339.848,128.68C339.426,128.68 339.109,128.575 338.898,128.364C338.687,128.153 338.582,127.852 338.582,127.461C338.582,127.055 338.687,126.747 338.898,126.536C339.109,126.325 339.41,126.219 339.801,126.219L340.785,126.219C341.176,126.219 341.418,126.079 341.512,125.797C341.543,125.704 341.559,125.594 341.559,125.469L341.559,115.743L336.566,115.743C335.816,115.743 335.254,115.563 334.879,115.204C334.551,114.876 334.387,114.391 334.387,113.751L334.387,109.79C334.387,108.336 335.082,107.61 336.473,107.61L341.512,107.61C342.34,107.61 342.941,107.797 343.316,108.172C343.691,108.547 343.879,109.118 343.879,109.883L343.879,125.915ZM330.637,110.141C330.637,109.985 330.601,109.868 330.531,109.79C330.461,109.711 330.34,109.672 330.168,109.672L326.512,109.672C326.34,109.672 326.215,109.711 326.137,109.79C326.059,109.868 326.012,109.993 325.996,110.165L325.996,110.657L330.637,110.657L330.637,110.141ZM341.559,110.165C341.559,109.961 341.496,109.821 341.371,109.743C341.277,109.711 341.168,109.688 341.043,109.672L337.082,109.672C336.91,109.672 336.789,109.708 336.719,109.778C336.648,109.848 336.613,109.969 336.613,110.141L336.613,110.657L341.559,110.657L341.559,110.165ZM325.996,113.704L330.168,113.704C330.355,113.704 330.488,113.641 330.566,113.516C330.598,113.438 330.621,113.336 330.637,113.211L330.637,112.626L325.996,112.626L325.996,113.704ZM341.559,113.704L341.559,112.626L336.613,112.626L336.613,113.211C336.613,113.383 336.652,113.504 336.73,113.575C336.809,113.645 336.926,113.688 337.082,113.704L341.559,113.704ZM337.316,122.938L337.316,127.04C337.316,127.446 337.215,127.751 337.012,127.954C336.809,128.157 336.535,128.258 336.191,128.258C335.848,128.258 335.574,128.157 335.371,127.954C335.168,127.751 335.066,127.446 335.066,127.04L335.066,122.938L332.207,122.938C332.004,124.532 331.48,125.774 330.637,126.665C329.715,127.633 328.785,128.118 327.848,128.118C327.488,128.118 327.211,128.02 327.016,127.825C326.82,127.629 326.723,127.344 326.723,126.969C326.723,126.485 327.09,126.094 327.824,125.797C329.059,125.282 329.777,124.329 329.98,122.938L327.777,122.938C327.293,122.938 326.957,122.782 326.769,122.469C326.66,122.297 326.605,122.094 326.605,121.86C326.605,121.547 326.699,121.297 326.887,121.11C327.09,120.907 327.387,120.805 327.777,120.805L330.121,120.805L330.144,119.211L330.121,118.743L328.551,118.743C328.16,118.743 327.867,118.645 327.672,118.45C327.476,118.254 327.379,118.001 327.379,117.688C327.379,117.376 327.473,117.126 327.66,116.938C327.863,116.735 328.16,116.633 328.551,116.633L338.98,116.633C339.512,116.633 339.863,116.805 340.035,117.149C340.113,117.305 340.152,117.493 340.152,117.711C340.152,118.024 340.059,118.274 339.871,118.461C339.684,118.649 339.387,118.743 338.98,118.743L337.316,118.743L337.316,120.805L339.801,120.805C340.191,120.805 340.484,120.903 340.68,121.098C340.875,121.294 340.973,121.555 340.973,121.883C340.973,122.196 340.879,122.446 340.691,122.633C340.488,122.836 340.191,122.938 339.801,122.938L337.316,122.938ZM335.066,120.805L335.066,118.743L332.348,118.743L332.371,119.633L332.324,120.805L335.066,120.805Z" style="fill:rgb(23,72,121);fill-rule:nonzero;"/>
        <path d="M368.371,114.641C368.371,114.829 368.34,115.016 368.277,115.204C368.215,115.391 368.121,115.547 367.996,115.672C367.762,115.907 367.441,116.024 367.035,116.024C366.785,116.024 366.551,115.993 366.332,115.93C364.519,115.399 362.988,114.665 361.738,113.727C360.816,113.024 359.965,112.227 359.184,111.336C358.387,110.43 357.769,109.532 357.332,108.641C357.207,108.391 357.144,108.145 357.144,107.903C357.144,107.661 357.23,107.454 357.402,107.282C357.512,107.172 357.644,107.086 357.801,107.024C357.973,106.946 358.144,106.907 358.316,106.907C358.582,106.907 358.824,107.016 359.043,107.235L359.394,107.704C359.738,108.329 360.16,108.961 360.66,109.602C361.144,109.086 361.629,108.477 362.113,107.774C362.394,107.368 362.723,107.165 363.098,107.165C363.348,107.165 363.582,107.251 363.801,107.422C364.144,107.657 364.316,107.938 364.316,108.266C364.316,108.532 364.184,108.829 363.918,109.157C363.387,109.829 362.762,110.454 362.043,111.032C362.34,111.297 362.613,111.516 362.863,111.688C363.691,111.047 364.41,110.422 365.019,109.813C365.363,109.469 365.687,109.297 365.992,109.297C366.297,109.297 366.566,109.415 366.801,109.649C367.035,109.883 367.152,110.141 367.152,110.422C367.152,110.751 366.965,111.071 366.59,111.383C366.043,111.868 365.457,112.321 364.832,112.743C365.488,112.977 366.269,113.196 367.176,113.399C367.676,113.524 368.027,113.758 368.23,114.102C368.324,114.274 368.371,114.454 368.371,114.641ZM350.441,121.579C350.488,121.61 350.574,121.626 350.699,121.626L354.238,121.626C354.91,121.626 355.418,121.79 355.762,122.118C356.059,122.43 356.207,122.852 356.207,123.383C356.207,124.883 355.98,126.149 355.527,127.18C355.34,127.665 355.012,128.032 354.543,128.282C354.074,128.532 353.496,128.665 352.809,128.68L350.863,128.704C350.41,128.704 350.074,128.594 349.855,128.376C349.652,128.172 349.551,127.899 349.551,127.555C349.551,127.211 349.66,126.93 349.879,126.711C350.098,126.493 350.441,126.383 350.91,126.383C350.941,126.383 351.223,126.391 351.754,126.407L352.129,126.407C352.863,126.407 353.285,126.297 353.394,126.079C353.535,125.813 353.633,125.54 353.687,125.258C353.742,124.977 353.769,124.594 353.769,124.11C353.769,123.954 353.742,123.848 353.687,123.794C353.633,123.739 353.535,123.711 353.394,123.711L349.926,123.711C348.973,123.711 348.387,123.399 348.168,122.774C348.105,122.602 348.074,122.407 348.074,122.188L348.074,122.165L348.144,121.485L348.473,119.446C348.582,118.805 348.934,118.376 349.527,118.157C349.762,118.079 350.027,118.04 350.324,118.04L353.699,118.04C353.84,118.04 353.937,118.012 353.992,117.958C354.047,117.903 354.074,117.805 354.074,117.665L354.074,116.891C354.074,116.751 354.047,116.653 353.992,116.598C353.937,116.544 353.84,116.516 353.699,116.516L350.465,116.516C349.902,116.516 349.543,116.305 349.387,115.883C349.371,115.852 349.355,115.813 349.34,115.766C348.59,116.063 348.098,116.211 347.863,116.211C347.582,116.211 347.348,116.118 347.16,115.93C347.019,115.805 346.918,115.633 346.855,115.415C346.809,115.305 346.785,115.18 346.785,115.04C346.785,114.743 346.879,114.501 347.066,114.313C347.254,114.126 347.519,113.985 347.863,113.891C348.973,113.61 349.973,113.251 350.863,112.813C350.348,112.438 349.949,112.157 349.668,111.969C349.387,111.782 349.207,111.649 349.129,111.571C348.926,111.383 348.824,111.157 348.824,110.891C348.824,110.626 348.926,110.391 349.129,110.188C349.332,109.985 349.555,109.883 349.797,109.883C350.039,109.883 350.269,109.954 350.488,110.094C351.316,110.579 352.09,111.102 352.809,111.665C353.512,111.165 354.168,110.563 354.777,109.86L349.574,109.86C348.887,109.86 348.465,109.641 348.309,109.204C348.262,109.079 348.238,108.946 348.238,108.805C348.238,108.461 348.359,108.2 348.601,108.02C348.844,107.84 349.168,107.751 349.574,107.751L355.809,107.751C356.418,107.751 356.902,107.93 357.262,108.29C357.48,108.508 357.59,108.774 357.59,109.086C357.59,109.321 357.508,109.567 357.344,109.825C357.18,110.083 357.004,110.329 356.816,110.563C355.644,112.094 354.113,113.391 352.223,114.454L354.355,114.454C354.98,114.454 355.465,114.626 355.809,114.969C356.152,115.329 356.324,115.829 356.324,116.469L356.324,118.086C356.324,118.399 356.293,118.649 356.23,118.836C356.137,119.149 355.996,119.399 355.809,119.586C355.465,119.93 354.98,120.102 354.355,120.102L350.934,120.102C350.855,120.102 350.785,120.118 350.723,120.149L350.535,120.922L350.441,121.555L350.441,121.579ZM364.434,116.165L364.434,117.969C364.434,118.079 364.449,118.149 364.48,118.18C364.527,118.227 364.613,118.251 364.738,118.251L365.488,118.251C365.691,118.251 365.824,118.157 365.887,117.969C365.918,117.891 365.941,117.782 365.957,117.641C365.988,117.344 366.094,117.102 366.273,116.915C366.453,116.727 366.719,116.633 367.07,116.633C367.422,116.633 367.691,116.727 367.879,116.915C368.066,117.102 368.16,117.368 368.16,117.711C368.16,118.633 367.941,119.305 367.504,119.727C367.144,120.102 366.637,120.29 365.98,120.29L364.129,120.29C363.316,120.29 362.754,120.055 362.441,119.586C362.285,119.368 362.199,119.118 362.184,118.836L362.184,116.633C362.184,116.493 362.156,116.395 362.101,116.34C362.047,116.286 361.949,116.258 361.809,116.258L360.262,116.258C360.152,116.258 360.074,116.282 360.027,116.329C359.934,116.422 359.879,116.586 359.863,116.821C359.754,118.071 359.355,119.047 358.668,119.751C358.09,120.329 357.519,120.618 356.957,120.618C356.473,120.618 356.144,120.446 355.973,120.102C355.894,119.93 355.855,119.743 355.855,119.54C355.855,119.055 356.082,118.672 356.535,118.391C356.973,118.11 357.277,117.817 357.449,117.512C357.621,117.208 357.707,116.821 357.707,116.352C357.707,115.602 357.894,115.04 358.269,114.665C358.598,114.336 359.066,114.172 359.676,114.172L362.441,114.172C363.098,114.172 363.594,114.34 363.93,114.676C364.266,115.012 364.434,115.508 364.434,116.165ZM357.707,123.196C357.707,122.883 357.824,122.641 358.059,122.469L357.613,122.469C357.207,122.469 356.906,122.372 356.711,122.176C356.516,121.981 356.418,121.735 356.418,121.438C356.418,121.313 356.422,121.235 356.43,121.204C356.437,121.172 356.449,121.137 356.465,121.098C356.48,121.059 356.492,121.024 356.5,120.993C356.508,120.961 356.527,120.93 356.559,120.899C356.73,120.571 357.082,120.407 357.613,120.407L364.574,120.407C365.34,120.407 365.871,120.563 366.168,120.876C366.371,121.063 366.473,121.313 366.473,121.626C366.473,122.063 366.074,122.743 365.277,123.665C364.684,124.352 364.035,124.977 363.332,125.54C364.332,125.93 365.512,126.188 366.871,126.313C367.324,126.36 367.656,126.485 367.867,126.688C368.078,126.891 368.184,127.161 368.184,127.497C368.184,127.833 368.078,128.106 367.867,128.317C367.656,128.528 367.34,128.633 366.918,128.633C365.09,128.633 363.199,128.079 361.246,126.969C358.543,128.141 356.957,128.727 356.488,128.727C356.082,128.727 355.781,128.629 355.586,128.434C355.391,128.239 355.293,127.954 355.293,127.579C355.293,126.969 355.848,126.547 356.957,126.313C357.879,126.11 358.668,125.86 359.324,125.563C358.246,124.61 357.707,123.821 357.707,123.196ZM363.355,122.469L359.512,122.469C359.684,122.579 359.832,122.735 359.957,122.938C360.41,123.594 360.855,124.094 361.293,124.438C361.824,124.063 362.324,123.626 362.793,123.126C363.012,122.876 363.199,122.657 363.355,122.469Z" style="fill:rgb(23,72,121);fill-rule:nonzero;"/>
    </g>
    <g transform="matrix(2.9,0,0,2.9,704.4,195.55)">
        <path d="M40,8L8,8C5.79,8 4.02,9.79 4.02,12L4,36C4,38.21 5.79,40 8,40L40,40C42.21,40 44,38.21 44,36L44,12C44,9.79 42.21,8 40,8ZM30,36L8,36L8,28L30,28L30,36ZM30,26L8,26L8,18L30,18L30,26ZM40,36L32,36L32,18L40,18L40,36Z" style="fill:rgb(23,72,121);fill-rule:nonzero;"/>
    </g>
    <g transform="matrix(0.452488,0,0,0.452488,678.759,221.291)">
        <path d="M856.856,956.158C856.572,956.7 856.203,957.208 855.749,957.662L830.36,983.071C829.197,984.235 827.619,984.889 825.974,984.889L803.931,984.889L787.846,1009.38C785.967,1012.24 782.12,1013.04 779.26,1011.16C776.4,1009.28 775.603,1005.44 777.481,1002.58L795.402,975.286C796.549,973.54 798.497,972.489 800.585,972.489L823.404,972.489L846.977,948.898C847.264,948.611 847.571,948.358 847.895,948.139C846.938,946.126 846.403,943.875 846.403,941.5C846.403,932.945 853.348,926 861.903,926C870.458,926 877.403,932.945 877.403,941.5C877.403,950.055 870.458,957 861.903,957C860.136,957 858.438,956.704 856.856,956.158ZM847.641,1037.48C847.241,1037.56 846.827,1037.6 846.403,1037.6L771.493,1037.6C766.892,1037.6 762.479,1035.77 759.225,1032.52C755.971,1029.27 754.143,1024.85 754.143,1020.25L754.143,945.83C754.143,941.228 755.971,936.815 759.225,933.562C762.479,930.308 766.892,928.48 771.493,928.48L806.068,928.48C809.49,928.48 812.268,931.258 812.268,934.68C812.268,938.102 809.49,940.88 806.068,940.88L771.493,940.88C770.18,940.88 768.921,941.402 767.993,942.33C767.065,943.258 766.543,944.517 766.543,945.83L766.543,1020.25C766.543,1021.56 767.065,1022.82 767.993,1023.75C768.921,1024.68 770.18,1025.2 771.493,1025.2L846.403,1025.2C846.827,1025.2 847.241,1025.24 847.641,1025.32C850.006,1019.79 855.504,1015.9 861.903,1015.9C870.458,1015.9 877.403,1022.85 877.403,1031.4C877.403,1039.95 870.458,1046.9 861.903,1046.9C855.504,1046.9 850.006,1043.01 847.641,1037.48Z" style="fill:rgb(40,133,226);fill-opacity:0.67;"/>
    </g>
    <g transform="matrix(2.18809,0,0,2.18809,-125.265,178.741)">
        <g opacity="0.67">
            <path d="M556.152,227.722L565.554,216.121L557.158,216.121C556.799,216.121 556.495,215.997 556.246,215.747C555.996,215.498 555.871,215.194 555.871,214.835C555.871,214.476 556,214.169 556.257,213.911C556.515,213.654 556.815,213.525 557.158,213.525L567.308,213.525C567.792,213.525 568.197,213.689 568.525,214.017C568.852,214.36 569.016,214.773 569.016,215.256C569.016,215.63 568.875,216.005 568.595,216.379L559.31,227.862L567.87,227.862C568.228,227.862 568.532,227.987 568.782,228.237C569.031,228.486 569.156,228.79 569.156,229.149C569.156,229.492 569.031,229.788 568.782,230.038C568.517,230.287 568.213,230.412 567.87,230.412L557.462,230.412C557.01,230.412 556.624,230.252 556.304,229.932C555.985,229.613 555.825,229.238 555.825,228.81C555.825,228.381 555.934,228.018 556.152,227.722Z" style="fill:rgb(40,133,226);fill-rule:nonzero;"/>
            <path d="M573.53,235.51C573.405,235.386 573.311,235.245 573.249,235.09C573.187,234.934 573.156,234.793 573.156,234.669C573.156,234.466 573.187,234.286 573.249,234.131L574.723,230.318L570.372,219.7C570.294,219.513 570.255,219.333 570.255,219.162C570.255,218.803 570.388,218.484 570.653,218.203C570.918,217.938 571.23,217.805 571.588,217.805C571.963,217.805 572.282,217.938 572.547,218.203C572.672,218.328 572.766,218.476 572.828,218.647L576.173,226.927L579.587,218.671C579.852,218.094 580.266,217.805 580.827,217.805C581.186,217.805 581.497,217.938 581.762,218.203C582.028,218.484 582.16,218.803 582.16,219.162C582.16,219.349 582.129,219.513 582.067,219.653L575.681,234.996C575.416,235.604 575.003,235.908 574.442,235.908C574.083,235.908 573.779,235.776 573.53,235.51Z" style="fill:rgb(40,133,226);fill-rule:nonzero;"/>
            <path d="M586.744,219.372C587.758,218.25 588.888,217.689 590.136,217.689L590.252,217.689C590.627,217.689 590.939,217.821 591.188,218.086C591.437,218.351 591.562,218.663 591.562,219.022C591.562,219.396 591.43,219.704 591.165,219.945C590.9,220.187 590.58,220.308 590.206,220.308L590.089,220.308C589.013,220.308 588.085,220.698 587.306,221.477C587.103,221.68 586.916,221.906 586.744,222.156L586.744,229.196C586.744,229.554 586.612,229.866 586.347,230.131C586.066,230.396 585.742,230.529 585.376,230.529C585.01,230.529 584.698,230.4 584.44,230.143C584.183,229.886 584.055,229.57 584.055,229.196L584.055,219.162C584.055,218.803 584.187,218.484 584.452,218.203C584.717,217.938 585.033,217.805 585.399,217.805C585.766,217.805 586.082,217.938 586.347,218.203C586.612,218.468 586.744,218.788 586.744,219.162L586.744,219.372Z" style="fill:rgb(40,133,226);fill-rule:nonzero;"/>
            <path d="M591.936,224.167C591.936,223.06 592.147,222.008 592.568,221.01C593.004,219.981 593.675,219.17 594.579,218.577C595.484,217.985 596.56,217.689 597.807,217.689C599.039,217.689 600.091,217.969 600.964,218.53C601.806,219.076 602.465,219.817 602.941,220.752C603.416,221.688 603.654,222.725 603.654,223.863C603.654,224.237 603.521,224.557 603.256,224.822C603.007,225.071 602.687,225.196 602.297,225.196L594.696,225.196C594.852,226.101 595.226,226.794 595.819,227.278C596.458,227.823 597.339,228.096 598.462,228.096C599.319,228.096 600.091,227.972 600.777,227.722C601.011,227.629 601.253,227.519 601.502,227.395C601.643,227.317 601.822,227.278 602.04,227.278C602.383,227.278 602.672,227.395 602.906,227.629C603.139,227.862 603.256,228.143 603.256,228.471C603.256,228.923 602.999,229.297 602.485,229.593C601.814,229.952 601.175,230.217 600.567,230.388C599.959,230.56 599.195,230.646 598.275,230.646C596.279,230.646 594.724,230.073 593.609,228.927C592.494,227.781 591.936,226.194 591.936,224.167ZM600.941,222.904C600.957,222.904 600.964,222.9 600.964,222.892L600.964,222.881C600.902,222.304 600.73,221.82 600.45,221.431C600.138,220.978 599.744,220.635 599.269,220.402C598.793,220.168 598.314,220.051 597.83,220.051C597.347,220.051 596.856,220.16 596.357,220.378C595.624,220.737 595.117,221.322 594.837,222.132C594.759,222.366 594.704,222.623 594.673,222.904L600.941,222.904Z" style="fill:rgb(40,133,226);fill-rule:nonzero;"/>
            <path d="M605.899,229.196L605.899,219.162C605.899,218.803 606.032,218.484 606.297,218.203C606.562,217.938 606.878,217.805 607.244,217.805C607.611,217.805 607.926,217.938 608.191,218.203C608.456,218.468 608.589,218.788 608.589,219.162L608.589,219.419C609.493,218.577 610.421,218.047 611.372,217.829C611.778,217.735 612.206,217.689 612.659,217.689C613.922,217.689 614.951,218.086 615.746,218.881C616.089,219.224 616.37,219.63 616.588,220.098C616.946,220.83 617.126,221.649 617.126,222.553L617.126,229.196C617.126,229.554 616.993,229.866 616.728,230.131C616.448,230.396 616.124,230.529 615.758,230.529C615.391,230.529 615.079,230.4 614.822,230.143C614.565,229.886 614.436,229.57 614.436,229.196L614.436,222.787C614.436,221.867 614.226,221.197 613.805,220.776C613.43,220.402 612.877,220.214 612.144,220.214C611.442,220.214 610.815,220.39 610.261,220.741C609.708,221.092 609.15,221.602 608.589,222.273L608.589,229.196C608.589,229.554 608.456,229.866 608.191,230.131C607.911,230.396 607.587,230.529 607.221,230.529C606.854,230.529 606.542,230.4 606.285,230.143C606.028,229.886 605.899,229.57 605.899,229.196Z" style="fill:rgb(40,133,226);fill-rule:nonzero;"/>
            <path d="M622.178,235.51C622.053,235.386 621.959,235.245 621.897,235.09C621.835,234.934 621.803,234.793 621.803,234.669C621.803,234.466 621.835,234.286 621.897,234.131L623.37,230.318L619.02,219.7C618.942,219.513 618.903,219.333 618.903,219.162C618.903,218.803 619.036,218.484 619.301,218.203C619.566,217.938 619.878,217.805 620.236,217.805C620.611,217.805 620.93,217.938 621.195,218.203C621.32,218.328 621.414,218.476 621.476,218.647L624.821,226.927L628.235,218.671C628.5,218.094 628.914,217.805 629.475,217.805C629.833,217.805 630.145,217.938 630.41,218.203C630.675,218.484 630.808,218.803 630.808,219.162C630.808,219.349 630.777,219.513 630.714,219.653L624.329,234.996C624.064,235.604 623.651,235.908 623.09,235.908C622.731,235.908 622.427,235.776 622.178,235.51Z" style="fill:rgb(40,133,226);fill-rule:nonzero;"/>
        </g>
    </g>
</svg>
