<?xml version="1.0" encoding="UTF-8" standalone="no"?>
<!DOCTYPE svg PUBLIC "-//W3C//DTD SVG 1.1//EN" "http://www.w3.org/Graphics/SVG/1.1/DTD/svg11.dtd">
<svg width="100%" height="100%" viewBox="0 0 1280 720" version="1.1" xmlns="http://www.w3.org/2000/svg" xmlns:xlink="http://www.w3.org/1999/xlink" xml:space="preserve" xmlns:serif="http://www.serif.com/" style="fill-rule:evenodd;clip-rule:evenodd;stroke-linejoin:round;stroke-miterlimit:2;">
    <g>
        <g transform="matrix(7.73913,0,0,7.73913,44.2609,379.478)">
            <path d="M43,35L29.195,35C29.79,38.301 31.768,40.572 33.596,42L36,42C36.553,42 37,42.447 37,43C37,43.553 36.553,44 36,44L12,44C11.447,44 11,43.553 11,43C11,42.447 11.447,42 12,42L14.403,42C16.23,40.572 18.21,38.301 18.804,35L5,35C2.791,35 1,33.209 1,31L1,8C1,5.791 2.791,4 5,4L43,4C45.209,4 47,5.791 47,8L47,31C47,33.209 45.209,35 43,35ZM17.397,42L30.602,42C29.007,40.318 27.587,38.024 27.143,35L20.856,35C20.412,38.024 18.992,40.318 17.397,42ZM45,8C45,6.896 44.104,6 43,6L5,6C3.896,6 3,6.896 3,8L3,27L45,27L45,8ZM45,29L3,29L3,31C3,32.104 3.896,33 5,33L43,33C44.104,33 45,32.104 45,31L45,29ZM24,32C23.447,32 23,31.553 23,31C23,30.447 23.447,30 24,30C24.553,30 25,30.447 25,31C25,31.553 24.553,32 24,32Z" style="fill:rgb(191,191,191);"/>
            <g>
                <clipPath id="_clip1">
                    <path d="M43,35L29.195,35C29.79,38.301 31.768,40.572 33.596,42L36,42C36.553,42 37,42.447 37,43C37,43.553 36.553,44 36,44L12,44C11.447,44 11,43.553 11,43C11,42.447 11.447,42 12,42L14.403,42C16.23,40.572 18.21,38.301 18.804,35L5,35C2.791,35 1,33.209 1,31L1,8C1,5.791 2.791,4 5,4L43,4C45.209,4 47,5.791 47,8L47,31C47,33.209 45.209,35 43,35ZM17.397,42L30.602,42C29.007,40.318 27.587,38.024 27.143,35L20.856,35C20.412,38.024 18.992,40.318 17.397,42ZM45,8C45,6.896 44.104,6 43,6L5,6C3.896,6 3,6.896 3,8L3,27L45,27L45,8ZM45,29L3,29L3,31C3,32.104 3.896,33 5,33L43,33C44.104,33 45,32.104 45,31L45,29ZM24,32C23.447,32 23,31.553 23,31C23,30.447 23.447,30 24,30C24.553,30 25,30.447 25,31C25,31.553 24.553,32 24,32Z"/>
                </clipPath>
                <g clip-path="url(#_clip1)">
                    <g transform="matrix(0.129213,0,0,0.129213,-5.7191,-49.0337)">
                        <path d="M230,627.13C225.72,627.13 222.261,623.671 222.261,619.391C222.261,615.112 225.72,611.652 230,611.652C234.28,611.652 237.739,615.112 237.739,619.391C237.739,623.671 234.28,627.13 230,627.13Z" style="fill:white;"/>
                    </g>
                </g>
            </g>
        </g>
        <g transform="matrix(1.02322,0,0,1.02322,-5.33954,-14.3794)">
            <path d="M392.522,603.913L392.522,619.391C392.522,627.935 385.587,634.87 377.043,634.87L82.957,634.87C74.413,634.87 67.478,627.935 67.478,619.391L67.478,603.913L392.522,603.913ZM230,627.13C234.28,627.13 237.739,623.671 237.739,619.391C237.739,615.112 234.28,611.652 230,611.652C225.72,611.652 222.261,615.112 222.261,619.391C222.261,623.671 225.72,627.13 230,627.13Z" style="fill:rgb(191,191,191);"/>
        </g>
    </g>
    <g transform="matrix(0.452488,0,0,0.452488,678.759,221.291)">
        <path d="M856.856,956.158C856.572,956.7 856.203,957.208 855.749,957.662L830.36,983.071C829.197,984.235 827.619,984.889 825.974,984.889L803.931,984.889L787.846,1009.38C785.967,1012.24 782.12,1013.04 779.26,1011.16C776.4,1009.28 775.603,1005.44 777.481,1002.58L795.402,975.286C796.549,973.54 798.497,972.489 800.585,972.489L823.404,972.489L846.977,948.898C847.264,948.611 847.571,948.358 847.895,948.139C846.938,946.126 846.403,943.875 846.403,941.5C846.403,932.945 853.348,926 861.903,926C870.458,926 877.403,932.945 877.403,941.5C877.403,950.055 870.458,957 861.903,957C860.136,957 858.438,956.704 856.856,956.158ZM847.641,1037.48C847.241,1037.56 846.827,1037.6 846.403,1037.6L771.493,1037.6C766.892,1037.6 762.479,1035.77 759.225,1032.52C755.971,1029.27 754.143,1024.85 754.143,1020.25L754.143,945.83C754.143,941.228 755.971,936.815 759.225,933.562C762.479,930.308 766.892,928.48 771.493,928.48L806.068,928.48C809.49,928.48 812.268,931.258 812.268,934.68C812.268,938.102 809.49,940.88 806.068,940.88L771.493,940.88C770.18,940.88 768.921,941.402 767.993,942.33C767.065,943.258 766.543,944.517 766.543,945.83L766.543,1020.25C766.543,1021.56 767.065,1022.82 767.993,1023.75C768.921,1024.68 770.18,1025.2 771.493,1025.2L846.403,1025.2C846.827,1025.2 847.241,1025.24 847.641,1025.32C850.006,1019.79 855.504,1015.9 861.903,1015.9C870.458,1015.9 877.403,1022.85 877.403,1031.4C877.403,1039.95 870.458,1046.9 861.903,1046.9C855.504,1046.9 850.006,1043.01 847.641,1037.48Z" style="fill:rgb(40,133,226);fill-opacity:0.67;"/>
    </g>
    <g transform="matrix(2.18809,0,0,2.18809,-125.265,178.741)">
        <g opacity="0.67">
            <path d="M556.152,227.722L565.554,216.121L557.158,216.121C556.799,216.121 556.495,215.997 556.246,215.747C555.996,215.498 555.871,215.194 555.871,214.835C555.871,214.476 556,214.169 556.257,213.911C556.515,213.654 556.815,213.525 557.158,213.525L567.308,213.525C567.792,213.525 568.197,213.689 568.525,214.017C568.852,214.36 569.016,214.773 569.016,215.256C569.016,215.63 568.875,216.005 568.595,216.379L559.31,227.862L567.87,227.862C568.228,227.862 568.532,227.987 568.782,228.237C569.031,228.486 569.156,228.79 569.156,229.149C569.156,229.492 569.031,229.788 568.782,230.038C568.517,230.287 568.213,230.412 567.87,230.412L557.462,230.412C557.01,230.412 556.624,230.252 556.304,229.932C555.985,229.613 555.825,229.238 555.825,228.81C555.825,228.381 555.934,228.018 556.152,227.722Z" style="fill:rgb(40,133,226);fill-rule:nonzero;"/>
            <path d="M573.53,235.51C573.405,235.386 573.311,235.245 573.249,235.09C573.187,234.934 573.156,234.793 573.156,234.669C573.156,234.466 573.187,234.286 573.249,234.131L574.723,230.318L570.372,219.7C570.294,219.513 570.255,219.333 570.255,219.162C570.255,218.803 570.388,218.484 570.653,218.203C570.918,217.938 571.23,217.805 571.588,217.805C571.963,217.805 572.282,217.938 572.547,218.203C572.672,218.328 572.766,218.476 572.828,218.647L576.173,226.927L579.587,218.671C579.852,218.094 580.266,217.805 580.827,217.805C581.186,217.805 581.497,217.938 581.762,218.203C582.028,218.484 582.16,218.803 582.16,219.162C582.16,219.349 582.129,219.513 582.067,219.653L575.681,234.996C575.416,235.604 575.003,235.908 574.442,235.908C574.083,235.908 573.779,235.776 573.53,235.51Z" style="fill:rgb(40,133,226);fill-rule:nonzero;"/>
            <path d="M586.744,219.372C587.758,218.25 588.888,217.689 590.136,217.689L590.252,217.689C590.627,217.689 590.939,217.821 591.188,218.086C591.437,218.351 591.562,218.663 591.562,219.022C591.562,219.396 591.43,219.704 591.165,219.945C590.9,220.187 590.58,220.308 590.206,220.308L590.089,220.308C589.013,220.308 588.085,220.698 587.306,221.477C587.103,221.68 586.916,221.906 586.744,222.156L586.744,229.196C586.744,229.554 586.612,229.866 586.347,230.131C586.066,230.396 585.742,230.529 585.376,230.529C585.01,230.529 584.698,230.4 584.44,230.143C584.183,229.886 584.055,229.57 584.055,229.196L584.055,219.162C584.055,218.803 584.187,218.484 584.452,218.203C584.717,217.938 585.033,217.805 585.399,217.805C585.766,217.805 586.082,217.938 586.347,218.203C586.612,218.468 586.744,218.788 586.744,219.162L586.744,219.372Z" style="fill:rgb(40,133,226);fill-rule:nonzero;"/>
            <path d="M591.936,224.167C591.936,223.06 592.147,222.008 592.568,221.01C593.004,219.981 593.675,219.17 594.579,218.577C595.484,217.985 596.56,217.689 597.807,217.689C599.039,217.689 600.091,217.969 600.964,218.53C601.806,219.076 602.465,219.817 602.941,220.752C603.416,221.688 603.654,222.725 603.654,223.863C603.654,224.237 603.521,224.557 603.256,224.822C603.007,225.071 602.687,225.196 602.297,225.196L594.696,225.196C594.852,226.101 595.226,226.794 595.819,227.278C596.458,227.823 597.339,228.096 598.462,228.096C599.319,228.096 600.091,227.972 600.777,227.722C601.011,227.629 601.253,227.519 601.502,227.395C601.643,227.317 601.822,227.278 602.04,227.278C602.383,227.278 602.672,227.395 602.906,227.629C603.139,227.862 603.256,228.143 603.256,228.471C603.256,228.923 602.999,229.297 602.485,229.593C601.814,229.952 601.175,230.217 600.567,230.388C599.959,230.56 599.195,230.646 598.275,230.646C596.279,230.646 594.724,230.073 593.609,228.927C592.494,227.781 591.936,226.194 591.936,224.167ZM600.941,222.904C600.957,222.904 600.964,222.9 600.964,222.892L600.964,222.881C600.902,222.304 600.73,221.82 600.45,221.431C600.138,220.978 599.744,220.635 599.269,220.402C598.793,220.168 598.314,220.051 597.83,220.051C597.347,220.051 596.856,220.16 596.357,220.378C595.624,220.737 595.117,221.322 594.837,222.132C594.759,222.366 594.704,222.623 594.673,222.904L600.941,222.904Z" style="fill:rgb(40,133,226);fill-rule:nonzero;"/>
            <path d="M605.899,229.196L605.899,219.162C605.899,218.803 606.032,218.484 606.297,218.203C606.562,217.938 606.878,217.805 607.244,217.805C607.611,217.805 607.926,217.938 608.191,218.203C608.456,218.468 608.589,218.788 608.589,219.162L608.589,219.419C609.493,218.577 610.421,218.047 611.372,217.829C611.778,217.735 612.206,217.689 612.659,217.689C613.922,217.689 614.951,218.086 615.746,218.881C616.089,219.224 616.37,219.63 616.588,220.098C616.946,220.83 617.126,221.649 617.126,222.553L617.126,229.196C617.126,229.554 616.993,229.866 616.728,230.131C616.448,230.396 616.124,230.529 615.758,230.529C615.391,230.529 615.079,230.4 614.822,230.143C614.565,229.886 614.436,229.57 614.436,229.196L614.436,222.787C614.436,221.867 614.226,221.197 613.805,220.776C613.43,220.402 612.877,220.214 612.144,220.214C611.442,220.214 610.815,220.39 610.261,220.741C609.708,221.092 609.15,221.602 608.589,222.273L608.589,229.196C608.589,229.554 608.456,229.866 608.191,230.131C607.911,230.396 607.587,230.529 607.221,230.529C606.854,230.529 606.542,230.4 606.285,230.143C606.028,229.886 605.899,229.57 605.899,229.196Z" style="fill:rgb(40,133,226);fill-rule:nonzero;"/>
            <path d="M622.178,235.51C622.053,235.386 621.959,235.245 621.897,235.09C621.835,234.934 621.803,234.793 621.803,234.669C621.803,234.466 621.835,234.286 621.897,234.131L623.37,230.318L619.02,219.7C618.942,219.513 618.903,219.333 618.903,219.162C618.903,218.803 619.036,218.484 619.301,218.203C619.566,217.938 619.878,217.805 620.236,217.805C620.611,217.805 620.93,217.938 621.195,218.203C621.32,218.328 621.414,218.476 621.476,218.647L624.821,226.927L628.235,218.671C628.5,218.094 628.914,217.805 629.475,217.805C629.833,217.805 630.145,217.938 630.41,218.203C630.675,218.484 630.808,218.803 630.808,219.162C630.808,219.349 630.777,219.513 630.714,219.653L624.329,234.996C624.064,235.604 623.651,235.908 623.09,235.908C622.731,235.908 622.427,235.776 622.178,235.51Z" style="fill:rgb(40,133,226);fill-rule:nonzero;"/>
        </g>
    </g>
    <g transform="matrix(0.534087,0,0,0.534087,409.21,-150.863)">
        <g transform="matrix(10.0004,0,0,10.0004,605.109,347.99)">
            <path d="M21.458,16.5C21.458,14.306 19.652,12.5 17.458,12.5L16.958,12.5L16.958,12C16.958,11.451 16.507,11 15.958,11L3.958,11C3.409,11 2.958,11.451 2.958,12L2.958,21.5C2.958,22.871 4.087,24 5.458,24L14.458,24C15.829,24 16.958,22.871 16.958,21.5L16.958,20.5L17.458,20.5C19.652,20.5 21.458,18.694 21.458,16.5ZM17.458,18.5L17.207,18.5C17.07,18.5 16.958,18.388 16.958,18.251L16.958,14.75C16.958,14.613 17.071,14.5 17.208,14.5L17.458,14.5C18.555,14.5 19.458,15.403 19.458,16.5C19.458,17.597 18.555,18.5 17.458,18.5Z" style="fill:rgb(23,72,121);fill-rule:nonzero;"/>
        </g>
        <g transform="matrix(10.0004,0,0,10.0004,605.109,347.99)">
            <path d="M5.649,2.865C5.729,2.821 5.78,2.737 5.78,2.645C5.78,2.56 5.736,2.481 5.665,2.435L3.3,0.905C3.222,0.859 3.134,0.834 3.043,0.834C2.769,0.834 2.543,1.06 2.543,1.334C2.543,1.361 2.545,1.389 2.55,1.416L2.972,3.946C2.985,4.026 3.036,4.095 3.109,4.13C3.181,4.166 3.266,4.166 3.338,4.13L5.649,2.865Z" style="fill:rgb(23,72,121);fill-rule:nonzero;"/>
        </g>
        <g transform="matrix(10.0004,0,0,10.0004,605.109,347.99)">
            <path d="M3.646,5.094C3.528,5.16 3.483,5.309 3.546,5.429L5.766,9.729C5.852,9.895 6.023,9.999 6.21,9.999L9.211,9.999C9.485,9.999 9.711,9.773 9.711,9.499C9.711,9.415 9.69,9.332 9.649,9.258L6.623,3.758C6.557,3.638 6.404,3.592 6.284,3.658L3.646,5.094Z" style="fill:rgb(23,72,121);fill-rule:nonzero;"/>
        </g>
        <g transform="matrix(10.0004,0,0,10.0004,605.109,347.99)">
            <path d="M13.538,7.293L13.532,7.293C13.309,7.199 13.095,7.082 12.896,6.944C12.854,6.916 12.805,6.9 12.754,6.9C12.664,6.9 12.58,6.949 12.535,7.028L11.293,9.257C11.252,9.331 11.23,9.415 11.23,9.5C11.23,9.774 11.456,10 11.73,10L13.562,10C13.77,10 13.957,9.871 14.03,9.677L14.7,7.893C14.711,7.865 14.716,7.834 14.716,7.804C14.716,7.679 14.623,7.573 14.5,7.556C14.269,7.527 14.041,7.474 13.82,7.4C13.727,7.369 13.633,7.333 13.538,7.293Z" style="fill:rgb(23,72,121);fill-rule:nonzero;"/>
        </g>
        <g transform="matrix(10.0004,0,0,10.0004,605.109,347.99)">
            <path d="M17.017,2.815C16.707,1.416 15.607,0.32 14.206,0.015C14.168,0.006 14.128,0.001 14.089,0.001C13.814,0.001 13.589,0.227 13.589,0.501C13.589,0.599 13.617,0.694 13.671,0.776C14.2,1.582 13.881,2.058 13.318,2.77C13.101,3.017 12.919,3.293 12.776,3.589C12.648,3.86 12.582,4.157 12.582,4.456C12.582,5.313 13.122,6.082 13.927,6.373C14.658,6.745 15.545,6.643 16.172,6.115C17.03,5.251 17.354,3.985 17.017,2.815Z" style="fill:rgb(23,72,121);fill-rule:nonzero;"/>
        </g>
    </g>
    <g transform="matrix(0.843398,0,0,0.843398,869.997,152.988)">
        <g>
            <path d="M61.856,4.944C61.856,9.412 59.842,11.646 55.813,11.646C53.982,11.646 52.554,11.133 51.528,10.108C50.356,8.936 49.77,7.215 49.77,4.944L49.77,-22.303L12.415,-22.303C10.071,-22.303 8.405,-22.798 7.416,-23.786C6.427,-24.775 5.933,-26.094 5.933,-27.742C5.933,-29.39 6.409,-30.69 7.361,-31.642C8.46,-32.741 10.144,-33.29 12.415,-33.29L49.77,-33.29L49.77,-73.502L17.689,-73.502C15.565,-73.502 13.99,-74.015 12.964,-75.04C11.939,-76.065 11.426,-77.384 11.426,-78.995C11.426,-80.607 11.939,-81.925 12.964,-82.95C13.99,-83.976 15.565,-84.489 17.689,-84.489L93.608,-84.489C95.952,-84.489 97.673,-83.939 98.771,-82.841C99.724,-81.888 100.2,-80.607 100.2,-78.995C100.2,-77.384 99.724,-76.102 98.771,-75.15C97.673,-74.051 95.952,-73.502 93.608,-73.502L61.856,-73.502L61.856,-33.29L99.98,-33.29C102.324,-33.29 104.045,-32.741 105.144,-31.642C106.096,-30.69 106.572,-29.408 106.572,-27.797C106.572,-26.185 106.096,-24.903 105.144,-23.951C104.045,-22.853 102.324,-22.303 99.98,-22.303L61.856,-22.303L61.856,4.944ZM81.852,-38.344C77.53,-38.344 75.37,-40.139 75.37,-43.728C75.37,-44.973 75.956,-46.694 77.127,-48.891L83.61,-63.943C84.928,-66.653 86.723,-68.008 88.993,-68.008C91.264,-68.008 92.985,-67.422 94.157,-66.251C95.109,-65.298 95.585,-64.2 95.585,-62.954C95.585,-61.709 95.109,-59.768 94.157,-57.131C93.205,-54.495 91.557,-50.722 89.213,-45.815C86.796,-40.834 84.342,-38.344 81.852,-38.344ZM19.007,-55.593C17.542,-58.743 16.81,-60.904 16.81,-62.076C16.81,-64.2 17.762,-65.701 19.666,-66.58C20.472,-66.946 21.388,-67.129 22.413,-67.129C24.098,-67.129 25.563,-66.507 26.808,-65.262C27.687,-64.383 28.456,-63.321 29.115,-62.076C33.07,-54.311 35.524,-48.928 36.476,-45.925C36.696,-45.119 36.806,-44.423 36.806,-43.837C36.806,-42.08 36.11,-40.651 34.718,-39.553C33.473,-38.6 32.082,-38.124 30.543,-38.124C27.614,-38.124 25.343,-40.285 23.732,-44.606C22.56,-47.683 20.985,-51.345 19.007,-55.593Z" style="fill:rgb(23,72,121);fill-rule:nonzero;"/>
            <path d="M122.173,-49.99C122.173,-58.12 125.689,-62.185 132.721,-62.185C133.233,-62.185 133.746,-62.149 134.259,-62.076L152.827,-62.076L156.782,-73.502L123.931,-73.502C121.734,-73.502 120.086,-74.051 118.987,-75.15C118.035,-76.102 117.559,-77.384 117.559,-78.995C117.559,-80.607 118.072,-81.925 119.097,-82.95C120.123,-83.976 121.734,-84.489 123.931,-84.489L213.474,-84.489C215.744,-84.489 217.429,-83.939 218.528,-82.841C219.48,-81.888 219.956,-80.607 219.956,-78.995C219.956,-77.384 219.48,-76.102 218.528,-75.15C217.429,-74.051 215.744,-73.502 213.474,-73.502L169.966,-73.502L165.242,-62.076L203.146,-62.076C207.541,-62.076 210.727,-61.05 212.705,-58.999C214.463,-57.315 215.342,-54.824 215.342,-51.528C215.342,-51.015 215.305,-50.503 215.232,-49.99L215.232,-2.966C215.232,3.626 212.961,7.544 208.42,8.789C207.248,9.082 206.204,9.229 205.289,9.229C204.373,9.229 203.659,9.192 203.146,9.119L134.259,9.119C129.937,9.119 126.788,8.13 124.81,6.153C123.052,4.321 122.173,1.575 122.173,-2.087L122.173,-49.99ZM147.333,-1.538L147.333,-51.418L137.225,-51.418C135.687,-51.418 134.698,-51.015 134.259,-50.21C133.966,-49.697 133.819,-48.965 133.819,-48.012L133.819,-4.944C133.819,-3.699 134.076,-2.82 134.589,-2.307C135.101,-1.795 135.98,-1.538 137.225,-1.538L147.333,-1.538ZM177.547,-42.519L177.547,-51.418L158.54,-51.418L158.54,-42.519L177.547,-42.519ZM188.644,-51.418L188.644,-1.538L200.29,-1.538C201.462,-1.538 202.304,-1.795 202.817,-2.307C203.329,-2.82 203.586,-3.699 203.586,-4.944L203.586,-48.122C203.586,-49.294 203.329,-50.137 202.817,-50.649C202.304,-51.162 201.462,-51.418 200.29,-51.418L188.644,-51.418ZM158.54,-22.523L177.547,-22.523L177.547,-32.191L158.54,-32.191L158.54,-22.523ZM177.547,-12.305L158.54,-12.305L158.54,-1.538L177.547,-1.538L177.547,-12.305Z" style="fill:rgb(23,72,121);fill-rule:nonzero;"/>
            <path d="M288.514,-87.016L304.445,-87.016C308.766,-87.016 311.623,-85.551 313.014,-82.621C313.747,-81.229 314.113,-79.545 314.113,-77.567L314.113,-59.109C314.113,-58.45 314.296,-57.937 314.662,-57.571C315.029,-57.205 315.761,-57.022 316.86,-57.022C318.911,-57.022 320.046,-57.205 320.266,-57.571C320.778,-58.596 321.071,-60.537 321.145,-63.394C321.291,-66.617 322.39,-68.594 324.441,-69.327C325.027,-69.547 325.594,-69.656 326.144,-69.656C326.693,-69.656 327.151,-69.638 327.517,-69.601C327.883,-69.565 328.249,-69.473 328.616,-69.327C329.348,-69.107 329.971,-68.741 330.483,-68.228C331.362,-67.349 331.802,-66.067 331.802,-64.383C331.802,-55.52 330.3,-50.246 327.297,-48.562C325.173,-47.39 321.364,-46.804 315.871,-46.804C310.89,-46.804 307.411,-47.793 305.433,-49.77C304.188,-51.015 303.566,-52.59 303.566,-54.495L303.566,-73.831C303.566,-74.637 303.364,-75.241 302.961,-75.644C302.559,-76.047 301.918,-76.285 301.039,-76.358L291.37,-76.358C290.345,-76.358 289.759,-76.212 289.612,-75.919C289.246,-74.967 289.063,-72.769 289.063,-69.327C289.063,-62.735 288.148,-57.754 286.316,-54.385C282.581,-47.5 278.772,-44.057 274.89,-44.057C273.279,-44.057 272.015,-44.515 271.1,-45.43C270.184,-46.346 269.726,-47.683 269.726,-49.441C269.726,-50.173 269.836,-50.759 270.056,-51.199C270.422,-52.004 270.862,-52.7 271.374,-53.286L272.143,-53.945C275.073,-56.143 276.904,-58.633 277.637,-61.416C278.369,-63.98 278.736,-69.473 278.736,-77.897C278.736,-79.288 278.882,-80.387 279.175,-81.193C279.614,-82.584 280.274,-83.72 281.153,-84.598C282.764,-86.21 285.218,-87.016 288.514,-87.016ZM235.008,-77.127C234.129,-78.006 233.69,-79.252 233.69,-80.863C233.69,-82.474 234.166,-83.756 235.118,-84.708C236.07,-85.661 237.572,-86.137 239.622,-86.137L261.926,-86.137C263.977,-86.137 265.496,-85.642 266.485,-84.653C267.474,-83.665 267.968,-82.401 267.968,-80.863C267.968,-79.325 267.474,-78.061 266.485,-77.073C265.496,-76.084 263.977,-75.589 261.926,-75.589L239.622,-75.589C237.572,-75.589 236.033,-76.102 235.008,-77.127ZM231.163,-62.185C230.21,-63.211 229.734,-64.493 229.734,-66.031C229.734,-67.569 230.229,-68.832 231.218,-69.821C232.206,-70.81 233.726,-71.304 235.777,-71.304L265.332,-71.304C267.456,-71.304 269.012,-70.81 270.001,-69.821C270.99,-68.832 271.484,-67.569 271.484,-66.031C271.484,-65.665 271.466,-65.317 271.429,-64.987C271.393,-64.657 271.301,-64.346 271.155,-64.053C270.935,-63.394 270.569,-62.808 270.056,-62.295C269.031,-61.27 267.456,-60.757 265.332,-60.757L235.777,-60.757C233.726,-60.757 232.188,-61.233 231.163,-62.185ZM234.129,-50.429C234.056,-50.796 234.019,-51.199 234.019,-51.638C234.019,-52.078 234.056,-52.48 234.129,-52.847C234.349,-53.945 234.862,-54.824 235.667,-55.483C236.693,-56.289 238.121,-56.692 239.952,-56.692L261.596,-56.692C263.647,-56.692 265.222,-56.143 266.32,-55.044C267.199,-54.165 267.639,-52.993 267.639,-51.528C267.639,-49.99 267.144,-48.727 266.156,-47.738C265.167,-46.749 263.647,-46.254 261.596,-46.254L239.952,-46.254C236.51,-46.254 234.569,-47.646 234.129,-50.429ZM265.771,5.164C265.771,2.307 268.225,0.183 273.132,-1.209C279.871,-3.04 285.437,-5.347 289.832,-8.13C287.195,-10.987 284.888,-14.173 282.911,-17.689C281.665,-19.813 280.731,-21.626 280.109,-23.127C279.486,-24.629 279.175,-25.966 279.175,-27.137C279.175,-28.309 279.541,-29.298 280.274,-30.104C281.299,-31.056 282.874,-31.532 284.998,-31.532C287.488,-31.532 289.319,-29.738 290.491,-26.149C292.982,-21.241 295.655,-17.432 298.512,-14.722C301.442,-17.359 304.408,-20.728 307.411,-24.83C310.341,-28.712 311.952,-31.056 312.245,-31.862L312.245,-32.082C312.099,-32.155 311.806,-32.191 311.366,-32.191L276.758,-32.191C273.901,-32.191 271.997,-33.107 271.045,-34.938C270.679,-35.671 270.495,-36.549 270.495,-37.575C270.495,-39.113 270.935,-40.322 271.814,-41.201C272.913,-42.299 274.561,-42.849 276.758,-42.849L315.322,-42.849C319.57,-42.849 322.573,-41.97 324.331,-40.212C325.503,-39.04 326.089,-37.502 326.089,-35.597C326.089,-33.18 323.818,-28.712 319.277,-22.193C315.102,-16.187 311.183,-11.5 307.521,-8.13C312.502,-5.493 319.13,-3.186 327.407,-1.209C329.824,-0.623 331.399,0.586 332.131,2.417C332.351,3.076 332.461,3.772 332.461,4.505C332.461,6.629 331.948,8.203 330.923,9.229C329.897,10.254 328.469,10.767 326.638,10.767C323.049,10.767 318.544,9.595 313.124,7.251C307.558,4.834 302.614,2.197 298.292,-0.659C293.531,2.344 288.55,4.944 283.35,7.141C277.637,9.632 273.535,10.877 271.045,10.877C269.433,10.877 268.152,10.401 267.199,9.449C266.247,8.496 265.771,7.068 265.771,5.164ZM240.172,-31.642C238.048,-31.642 236.491,-32.136 235.502,-33.125C234.514,-34.114 234.019,-35.378 234.019,-36.916C234.019,-38.454 234.495,-39.699 235.447,-40.651C236.4,-41.603 237.901,-42.08 239.952,-42.08L261.596,-42.08C265.112,-42.08 267.09,-40.688 267.529,-37.905C267.602,-37.538 267.639,-37.081 267.639,-36.531C267.639,-35.982 267.529,-35.414 267.309,-34.828C267.016,-34.023 266.54,-33.363 265.881,-32.851C264.856,-32.045 263.427,-31.642 261.596,-31.642L240.172,-31.642ZM233.799,-2.307L233.799,-17.469C233.799,-20.765 234.66,-23.274 236.381,-24.995C238.103,-26.716 240.685,-27.577 244.127,-27.577L257.201,-27.577C260.644,-27.577 263.244,-26.698 265.002,-24.94C266.76,-23.182 267.639,-20.692 267.639,-17.469L267.639,-2.527C267.639,0.769 266.723,3.296 264.892,5.054C263.061,6.812 260.497,7.691 257.201,7.691L244.127,7.691C240.685,7.691 238.103,6.83 236.381,5.109C234.66,3.388 233.799,0.916 233.799,-2.307ZM256.652,-3.955L256.652,-16.041C256.652,-16.553 256.542,-16.92 256.322,-17.139C256.103,-17.359 255.736,-17.469 255.224,-17.469L246.215,-17.469C245.629,-17.469 245.226,-17.359 245.006,-17.139C244.786,-16.92 244.676,-16.553 244.676,-16.041L244.676,-3.955C244.676,-3.369 244.786,-2.966 245.006,-2.747C245.226,-2.527 245.629,-2.417 246.215,-2.417L255.224,-2.417C255.883,-2.417 256.286,-2.6 256.432,-2.966C256.579,-3.186 256.652,-3.516 256.652,-3.955Z" style="fill:rgb(23,72,121);fill-rule:nonzero;"/>
            <path d="M443.208,-53.835C443.721,-53.323 444.087,-52.737 444.307,-52.078C444.527,-51.418 444.636,-50.814 444.636,-50.265C444.636,-49.715 444.618,-49.294 444.582,-49.001C444.545,-48.708 444.49,-48.434 444.417,-48.177C444.343,-47.921 444.27,-47.683 444.197,-47.463C443.318,-45.559 441.487,-44.606 438.704,-44.606L420.465,-44.606L420.465,5.054C420.465,8.716 419.294,10.95 416.95,11.756C416.217,11.976 415.412,12.085 414.533,12.085C412.482,12.085 410.98,11.5 410.028,10.328C409.076,9.156 408.6,7.398 408.6,5.054L408.6,-44.606L391.241,-44.606C389.19,-44.606 387.67,-45.101 386.681,-46.09C385.692,-47.079 385.198,-48.379 385.198,-49.99C385.198,-51.601 385.692,-52.902 386.681,-53.89C387.67,-54.879 389.19,-55.374 391.241,-55.374L408.6,-55.374L408.6,-83.5C408.6,-87.089 409.808,-89.323 412.225,-90.202C412.885,-90.421 413.58,-90.531 414.313,-90.531C415.045,-90.531 415.668,-90.495 416.181,-90.421C417.426,-90.129 418.415,-89.543 419.147,-88.664C420.026,-87.565 420.465,-85.844 420.465,-83.5L420.465,-55.374L438.704,-55.374C440.681,-55.374 442.183,-54.861 443.208,-53.835ZM352.018,-86.466L378.606,-86.466C380.51,-86.466 381.957,-85.972 382.945,-84.983C383.934,-83.994 384.429,-82.657 384.429,-80.973C384.429,-79.288 383.953,-77.97 383,-77.018C382.048,-76.065 380.583,-75.589 378.606,-75.589L352.018,-75.589C350.113,-75.589 348.685,-76.065 347.733,-77.018C346.781,-77.97 346.304,-79.307 346.304,-81.028C346.304,-82.749 346.781,-84.086 347.733,-85.038C348.685,-85.99 350.113,-86.466 352.018,-86.466ZM347.952,-60.537C345.975,-60.537 344.51,-61.05 343.558,-62.076C342.606,-62.954 342.129,-64.236 342.129,-65.921C342.129,-67.606 342.624,-68.942 343.613,-69.931C344.601,-70.92 346.048,-71.414 347.952,-71.414L382.891,-71.414C385.454,-71.414 387.175,-70.535 388.054,-68.777C388.494,-67.972 388.714,-67.02 388.714,-65.921C388.714,-63.577 387.835,-62.002 386.077,-61.197C385.198,-60.757 384.136,-60.537 382.891,-60.537L347.952,-60.537ZM378.166,-56.472C380.071,-56.472 381.536,-55.996 382.561,-55.044C383.44,-54.092 383.879,-52.81 383.879,-51.199C383.879,-49.587 383.403,-48.305 382.451,-47.353C381.499,-46.401 380.071,-45.925 378.166,-45.925L352.237,-45.925C350.406,-45.925 349.015,-46.401 348.062,-47.353C347.11,-48.305 346.634,-49.587 346.634,-51.199C346.634,-52.81 347.11,-54.092 348.062,-55.044C349.015,-55.996 350.406,-56.472 352.237,-56.472L378.166,-56.472ZM382.891,-40.651C383.769,-39.699 384.209,-38.417 384.209,-36.806C384.209,-35.194 383.733,-33.913 382.781,-32.96C381.828,-32.008 380.4,-31.532 378.496,-31.532L352.237,-31.532C350.406,-31.532 348.978,-32.008 347.952,-32.96C347.074,-33.913 346.634,-35.194 346.634,-36.806C346.634,-38.417 347.11,-39.699 348.062,-40.651C349.015,-41.603 350.406,-42.08 352.237,-42.08L378.496,-42.08C380.4,-42.08 381.865,-41.603 382.891,-40.651ZM383.769,-17.469L383.769,-1.428C383.769,1.795 382.909,4.267 381.188,5.988C379.466,7.709 376.958,8.57 373.662,8.57L356.522,8.57C353.226,8.57 350.717,7.709 348.996,5.988C347.275,4.267 346.414,1.795 346.414,-1.428L346.414,-17.469C346.414,-20.692 347.275,-23.164 348.996,-24.885C350.717,-26.606 353.226,-27.467 356.522,-27.467L373.662,-27.467C376.958,-27.467 379.466,-26.606 381.188,-24.885C382.909,-23.164 383.769,-20.692 383.769,-17.469ZM372.893,-15.382C372.893,-16.041 372.783,-16.48 372.563,-16.7C372.343,-16.92 371.904,-17.03 371.245,-17.03L358.939,-17.03C358.353,-17.03 357.95,-16.92 357.731,-16.7C357.511,-16.48 357.365,-16.041 357.291,-15.382L357.291,-3.516C357.291,-2.857 357.401,-2.417 357.621,-2.197C357.841,-1.978 358.28,-1.831 358.939,-1.758L371.245,-1.758C371.83,-1.758 372.233,-1.868 372.453,-2.087C372.673,-2.38 372.819,-2.857 372.893,-3.516L372.893,-15.382Z" style="fill:rgb(23,72,121);fill-rule:nonzero;"/>
        </g>
    </g>
    <g transform="matrix(0.88241,0,0,0.88241,23.9574,53.2107)">
        <g opacity="0.69">
            <g transform="matrix(0.738235,0,0,0.738235,-104.347,291.422)">
                <g transform="matrix(0.971963,0,0,0.971963,-59.5514,17.1378)">
                    <path d="M419.932,241C433.224,241 444,251.776 444,265.068L444,323.932C444,337.224 433.224,348 419.932,348L361.068,348C347.776,348 337,337.224 337,323.932L337,265.068C337,251.776 347.776,241 361.068,241L419.932,241Z" style="fill:rgb(35,71,125);"/>
                </g>
                <g transform="matrix(0.834005,0,0,0.834005,-5.67881,57.7664)">
                    <path d="M406.087,241L422.279,241C434.275,241 444,250.725 444,262.721L444,306.49L401.291,306.49L384.505,278.913L406.087,241Z" style="fill:url(#_Linear2);"/>
                </g>
                <g transform="matrix(0.834005,0,0,0.834005,-5.67881,57.7664)">
                    <path d="M383.306,282.51L397.694,306.49L378.152,306.49C376.268,306.49 374.53,305.477 373.602,303.838C372.674,302.199 372.699,300.187 373.668,298.572L383.306,282.51Z" style="fill:url(#_Linear3);"/>
                </g>
                <g transform="matrix(0.834005,0,0,0.834005,-5.67881,57.7664)">
                    <path d="M385.704,348L358.721,348C346.725,348 337,338.275 337,326.279L337,321.789L383.861,241L402.49,241L362.922,308.888L385.704,348Z" style="fill:url(#_Linear4);"/>
                </g>
                <g transform="matrix(0.834005,0,0,0.834005,-5.67881,57.7664)">
                    <path d="M444,311.286L444,326.279C444,338.275 434.275,348 422.279,348L390.5,348L368.917,311.286L444,311.286Z" style="fill:url(#_Linear5);"/>
                </g>
            </g>
            <g transform="matrix(0.738235,0,0,0.738235,-212.371,249.624)">
                <g transform="matrix(0.971963,0,0,0.971963,224.449,73.757)">
                    <path d="M419.932,241C433.224,241 444,251.776 444,265.068L444,323.932C444,337.224 433.224,348 419.932,348L361.068,348C347.776,348 337,337.224 337,323.932L337,265.068C337,251.776 347.776,241 361.068,241L419.932,241Z" style="fill:rgb(74,50,131);"/>
                </g>
                <g transform="matrix(1,0,0,1,60,64)">
                    <g>
                        <g transform="matrix(0.831506,0,0,0.831506,219.297,51.1215)">
                            <path d="M437.497,247.503C441.661,251.667 444,257.314 444,263.202L444,306.526L402.526,306.526L437.497,247.503Z" style="fill:url(#_Linear6);"/>
                        </g>
                        <g transform="matrix(0.831506,0,0,0.831506,219.297,51.1215)">
                            <path d="M343.606,341.599C339.527,337.574 337,331.981 337,325.798L337,321.711L360.422,281.271L379.676,281.271L343.606,341.599Z" style="fill:url(#_Linear7);"/>
                        </g>
                        <g transform="matrix(0.831506,0,0,0.831506,219.297,51.1215)">
                            <path d="M444,311.358L444,325.798C444,338.06 434.06,348 421.798,348L407.824,348L385.689,311.337L444,311.358Z" style="fill:url(#_Linear8);"/>
                        </g>
                        <g transform="matrix(0.831506,0,0,0.831506,219.297,51.1215)">
                            <path d="M403.301,348L359.202,348C354.613,348 350.349,346.608 346.81,344.223L373.663,298.108L403.301,348Z" style="fill:url(#_Linear9);"/>
                        </g>
                        <g transform="matrix(0.831506,0,0,0.831506,219.297,51.1215)">
                            <path d="M381.288,245.244L383.746,241L421.798,241C426.314,241 430.688,242.376 434.359,244.895L408.54,289.689L381.288,245.244Z" style="fill:url(#_Linear10);"/>
                        </g>
                        <g transform="matrix(0.831506,0,0,0.831506,219.297,51.1215)">
                            <path d="M363.314,276.278L379.357,248.578L395.311,276.46L363.314,276.278Z" style="fill:url(#_Linear11);"/>
                        </g>
                    </g>
                    <g transform="matrix(0.892441,-0.515251,0.515251,0.892441,-97.5872,312.593)">
                        <path d="M546.61,285.802C547.47,285.306 548.53,285.306 549.39,285.802C551.378,286.95 555.014,289.05 557.003,290.198C557.863,290.694 558.392,291.612 558.392,292.605L558.392,301.395C558.392,302.388 557.863,303.306 557.003,303.802C555.014,304.95 551.378,307.05 549.39,308.198C548.53,308.694 547.47,308.694 546.61,308.198C544.622,307.05 540.986,304.95 538.997,303.802C538.137,303.306 537.608,302.388 537.608,301.395L537.608,292.605C537.608,291.612 538.137,290.694 538.997,290.198C540.986,289.05 544.622,286.95 546.61,285.802Z" style="fill:url(#_Linear12);"/>
                    </g>
                </g>
            </g>
            <g transform="matrix(0.738235,0,0,0.738235,-220.779,296.871)">
                <g transform="matrix(0.971963,0,0,0.971963,373.449,9.75701)">
                    <path d="M419.932,241C433.224,241 444,251.776 444,265.068L444,323.932C444,337.224 433.224,348 419.932,348L361.068,348C347.776,348 337,337.224 337,323.932L337,265.068C337,251.776 347.776,241 361.068,241L419.932,241Z" style="fill:rgb(126,38,42);"/>
                </g>
                <g transform="matrix(1,0,0,1,55,0)">
                    <g transform="matrix(0.831506,0,0,0.831506,373.297,51.1215)">
                        <path d="M398.724,241L421.798,241C434.06,241 444,250.94 444,263.202L444,319.421L398.724,241Z" style="fill:url(#_Linear13);"/>
                    </g>
                    <g transform="matrix(0.831506,0,0,0.831506,373.297,51.1215)">
                        <path d="M380.003,248.684L384.542,241L392.954,241L443.769,329.014C442.893,335.049 439.59,340.297 434.882,343.737L380.003,248.684Z" style="fill:url(#_Linear14);"/>
                    </g>
                    <g transform="matrix(0.831506,0,0,0.831506,373.297,51.1215)">
                        <path d="M368.491,268.173L377.085,253.624L430.541,346.212C427.858,347.363 424.902,348 421.798,348L414.579,348L368.491,268.173Z" style="fill:url(#_Linear15);"/>
                    </g>
                    <g transform="matrix(0.831506,0,0,0.831506,373.297,51.1215)">
                        <path d="M360.38,293.102C358.36,289.603 358.381,285.287 360.436,281.809C362.806,277.797 365.573,273.112 365.573,273.112L408.809,348L392.075,348C392.075,348 369.069,308.152 360.38,293.102Z" style="fill:url(#_Linear16);"/>
                    </g>
                    <g transform="matrix(0.831506,0,0,0.831506,373.297,51.1215)">
                        <path d="M386.305,348L359.202,348C346.94,348 337,338.06 337,325.798L337,321.483L354.192,292.379L386.305,348Z" style="fill:url(#_Linear17);"/>
                    </g>
                </g>
            </g>
        </g>
    </g>
    <defs>
        <linearGradient id="_Linear2" x1="0" y1="0" x2="1" y2="0" gradientUnits="userSpaceOnUse" gradientTransform="matrix(6.55186e-15,107,-107,6.55186e-15,390.5,241)"><stop offset="0" style="stop-color:rgb(125,210,247);stop-opacity:1"/><stop offset="1" style="stop-color:rgb(93,175,231);stop-opacity:1"/></linearGradient>
        <linearGradient id="_Linear3" x1="0" y1="0" x2="1" y2="0" gradientUnits="userSpaceOnUse" gradientTransform="matrix(6.55186e-15,107,-107,6.55186e-15,390.5,241)"><stop offset="0" style="stop-color:rgb(125,210,247);stop-opacity:1"/><stop offset="1" style="stop-color:rgb(93,175,231);stop-opacity:1"/></linearGradient>
        <linearGradient id="_Linear4" x1="0" y1="0" x2="1" y2="0" gradientUnits="userSpaceOnUse" gradientTransform="matrix(6.55186e-15,107,-107,6.55186e-15,390.5,241)"><stop offset="0" style="stop-color:rgb(125,210,247);stop-opacity:1"/><stop offset="1" style="stop-color:rgb(93,175,231);stop-opacity:1"/></linearGradient>
        <linearGradient id="_Linear5" x1="0" y1="0" x2="1" y2="0" gradientUnits="userSpaceOnUse" gradientTransform="matrix(6.55186e-15,107,-107,6.55186e-15,390.5,241)"><stop offset="0" style="stop-color:rgb(125,210,247);stop-opacity:1"/><stop offset="1" style="stop-color:rgb(93,175,231);stop-opacity:1"/></linearGradient>
        <linearGradient id="_Linear6" x1="0" y1="0" x2="1" y2="0" gradientUnits="userSpaceOnUse" gradientTransform="matrix(6.55186e-15,107,-107,6.55186e-15,390.5,241)"><stop offset="0" style="stop-color:rgb(233,159,249);stop-opacity:1"/><stop offset="1" style="stop-color:rgb(213,118,243);stop-opacity:1"/></linearGradient>
        <linearGradient id="_Linear7" x1="0" y1="0" x2="1" y2="0" gradientUnits="userSpaceOnUse" gradientTransform="matrix(6.55186e-15,107,-107,6.55186e-15,390.5,241)"><stop offset="0" style="stop-color:rgb(233,159,249);stop-opacity:1"/><stop offset="1" style="stop-color:rgb(213,118,243);stop-opacity:1"/></linearGradient>
        <linearGradient id="_Linear8" x1="0" y1="0" x2="1" y2="0" gradientUnits="userSpaceOnUse" gradientTransform="matrix(6.55186e-15,107,-107,6.55186e-15,390.5,241)"><stop offset="0" style="stop-color:rgb(233,159,249);stop-opacity:1"/><stop offset="1" style="stop-color:rgb(213,118,243);stop-opacity:1"/></linearGradient>
        <linearGradient id="_Linear9" x1="0" y1="0" x2="1" y2="0" gradientUnits="userSpaceOnUse" gradientTransform="matrix(6.55186e-15,107,-107,6.55186e-15,390.5,241)"><stop offset="0" style="stop-color:rgb(233,159,249);stop-opacity:1"/><stop offset="1" style="stop-color:rgb(213,118,243);stop-opacity:1"/></linearGradient>
        <linearGradient id="_Linear10" x1="0" y1="0" x2="1" y2="0" gradientUnits="userSpaceOnUse" gradientTransform="matrix(6.55186e-15,107,-107,6.55186e-15,390.5,241)"><stop offset="0" style="stop-color:rgb(233,159,249);stop-opacity:1"/><stop offset="1" style="stop-color:rgb(213,118,243);stop-opacity:1"/></linearGradient>
        <linearGradient id="_Linear11" x1="0" y1="0" x2="1" y2="0" gradientUnits="userSpaceOnUse" gradientTransform="matrix(6.55186e-15,107,-107,6.55186e-15,390.5,241)"><stop offset="0" style="stop-color:rgb(233,159,249);stop-opacity:1"/><stop offset="1" style="stop-color:rgb(213,118,243);stop-opacity:1"/></linearGradient>
        <linearGradient id="_Linear12" x1="0" y1="0" x2="1" y2="0" gradientUnits="userSpaceOnUse" gradientTransform="matrix(-43.1688,74.7706,-74.7706,-43.1688,568.82,259.968)"><stop offset="0" style="stop-color:rgb(233,159,249);stop-opacity:1"/><stop offset="1" style="stop-color:rgb(213,118,243);stop-opacity:1"/></linearGradient>
        <linearGradient id="_Linear13" x1="0" y1="0" x2="1" y2="0" gradientUnits="userSpaceOnUse" gradientTransform="matrix(6.55186e-15,107,-107,6.55186e-15,390.5,241)"><stop offset="0" style="stop-color:rgb(243,172,116);stop-opacity:1"/><stop offset="1" style="stop-color:rgb(233,145,92);stop-opacity:1"/></linearGradient>
        <linearGradient id="_Linear14" x1="0" y1="0" x2="1" y2="0" gradientUnits="userSpaceOnUse" gradientTransform="matrix(6.55186e-15,107,-107,6.55186e-15,390.5,241)"><stop offset="0" style="stop-color:rgb(243,172,116);stop-opacity:1"/><stop offset="1" style="stop-color:rgb(233,145,92);stop-opacity:1"/></linearGradient>
        <linearGradient id="_Linear15" x1="0" y1="0" x2="1" y2="0" gradientUnits="userSpaceOnUse" gradientTransform="matrix(6.55186e-15,107,-107,6.55186e-15,390.5,241)"><stop offset="0" style="stop-color:rgb(243,172,116);stop-opacity:1"/><stop offset="1" style="stop-color:rgb(233,145,92);stop-opacity:1"/></linearGradient>
        <linearGradient id="_Linear16" x1="0" y1="0" x2="1" y2="0" gradientUnits="userSpaceOnUse" gradientTransform="matrix(6.55186e-15,107,-107,6.55186e-15,390.5,241)"><stop offset="0" style="stop-color:rgb(243,172,116);stop-opacity:1"/><stop offset="1" style="stop-color:rgb(233,145,92);stop-opacity:1"/></linearGradient>
        <linearGradient id="_Linear17" x1="0" y1="0" x2="1" y2="0" gradientUnits="userSpaceOnUse" gradientTransform="matrix(6.55186e-15,107,-107,6.55186e-15,390.5,241)"><stop offset="0" style="stop-color:rgb(243,172,116);stop-opacity:1"/><stop offset="1" style="stop-color:rgb(233,145,92);stop-opacity:1"/></linearGradient>
    </defs>
</svg>
