<?xml version="1.0" encoding="UTF-8" standalone="no"?>
<!DOCTYPE svg PUBLIC "-//W3C//DTD SVG 1.1//EN" "http://www.w3.org/Graphics/SVG/1.1/DTD/svg11.dtd">
<svg width="100%" height="100%" viewBox="0 0 1280 720" version="1.1" xmlns="http://www.w3.org/2000/svg" xmlns:xlink="http://www.w3.org/1999/xlink" xml:space="preserve" xmlns:serif="http://www.serif.com/" style="fill-rule:evenodd;clip-rule:evenodd;stroke-linejoin:round;stroke-miterlimit:2;">
    <g>
        <g transform="matrix(7.73913,0,0,7.73913,44.2609,379.478)">
            <path d="M43,35L29.195,35C29.79,38.301 31.768,40.572 33.596,42L36,42C36.553,42 37,42.447 37,43C37,43.553 36.553,44 36,44L12,44C11.447,44 11,43.553 11,43C11,42.447 11.447,42 12,42L14.403,42C16.23,40.572 18.21,38.301 18.804,35L5,35C2.791,35 1,33.209 1,31L1,8C1,5.791 2.791,4 5,4L43,4C45.209,4 47,5.791 47,8L47,31C47,33.209 45.209,35 43,35ZM17.397,42L30.602,42C29.007,40.318 27.587,38.024 27.143,35L20.856,35C20.412,38.024 18.992,40.318 17.397,42ZM45,8C45,6.896 44.104,6 43,6L5,6C3.896,6 3,6.896 3,8L3,27L45,27L45,8ZM45,29L3,29L3,31C3,32.104 3.896,33 5,33L43,33C44.104,33 45,32.104 45,31L45,29ZM24,32C23.447,32 23,31.553 23,31C23,30.447 23.447,30 24,30C24.553,30 25,30.447 25,31C25,31.553 24.553,32 24,32Z" style="fill:rgb(191,191,191);"/>
            <clipPath id="_clip1">
                <path d="M43,35L29.195,35C29.79,38.301 31.768,40.572 33.596,42L36,42C36.553,42 37,42.447 37,43C37,43.553 36.553,44 36,44L12,44C11.447,44 11,43.553 11,43C11,42.447 11.447,42 12,42L14.403,42C16.23,40.572 18.21,38.301 18.804,35L5,35C2.791,35 1,33.209 1,31L1,8C1,5.791 2.791,4 5,4L43,4C45.209,4 47,5.791 47,8L47,31C47,33.209 45.209,35 43,35ZM17.397,42L30.602,42C29.007,40.318 27.587,38.024 27.143,35L20.856,35C20.412,38.024 18.992,40.318 17.397,42ZM45,8C45,6.896 44.104,6 43,6L5,6C3.896,6 3,6.896 3,8L3,27L45,27L45,8ZM45,29L3,29L3,31C3,32.104 3.896,33 5,33L43,33C44.104,33 45,32.104 45,31L45,29ZM24,32C23.447,32 23,31.553 23,31C23,30.447 23.447,30 24,30C24.553,30 25,30.447 25,31C25,31.553 24.553,32 24,32Z"/>
            </clipPath>
            <g clip-path="url(#_clip1)">
                <g transform="matrix(0.129213,0,0,0.129213,-5.7191,-49.0337)">
                    <path d="M230,627.13C225.72,627.13 222.261,623.671 222.261,619.391C222.261,615.112 225.72,611.652 230,611.652C234.28,611.652 237.739,615.112 237.739,619.391C237.739,623.671 234.28,627.13 230,627.13Z" style="fill:white;"/>
                </g>
            </g>
        </g>
        <g transform="matrix(1.02322,0,0,1.02322,-5.33954,-14.3794)">
            <path d="M392.522,603.913L392.522,619.391C392.522,627.935 385.587,634.87 377.043,634.87L82.957,634.87C74.413,634.87 67.478,627.935 67.478,619.391L67.478,603.913L392.522,603.913ZM230,627.13C234.28,627.13 237.739,623.671 237.739,619.391C237.739,615.112 234.28,611.652 230,611.652C225.72,611.652 222.261,615.112 222.261,619.391C222.261,623.671 225.72,627.13 230,627.13Z" style="fill:rgb(191,191,191);"/>
        </g>
    </g>
    <g transform="matrix(0.452488,0,0,0.452488,678.759,221.291)">
        <path d="M856.856,956.158C856.572,956.7 856.203,957.208 855.749,957.662L830.36,983.071C829.197,984.235 827.619,984.889 825.974,984.889L803.931,984.889L787.846,1009.38C785.967,1012.24 782.12,1013.04 779.26,1011.16C776.4,1009.28 775.603,1005.44 777.481,1002.58L795.402,975.286C796.549,973.54 798.497,972.489 800.585,972.489L823.404,972.489L846.977,948.898C847.264,948.611 847.571,948.358 847.895,948.139C846.938,946.126 846.403,943.875 846.403,941.5C846.403,932.945 853.348,926 861.903,926C870.458,926 877.403,932.945 877.403,941.5C877.403,950.055 870.458,957 861.903,957C860.136,957 858.438,956.704 856.856,956.158ZM847.641,1037.48C847.241,1037.56 846.827,1037.6 846.403,1037.6L771.493,1037.6C766.892,1037.6 762.479,1035.77 759.225,1032.52C755.971,1029.27 754.143,1024.85 754.143,1020.25L754.143,945.83C754.143,941.228 755.971,936.815 759.225,933.562C762.479,930.308 766.892,928.48 771.493,928.48L806.068,928.48C809.49,928.48 812.268,931.258 812.268,934.68C812.268,938.102 809.49,940.88 806.068,940.88L771.493,940.88C770.18,940.88 768.921,941.402 767.993,942.33C767.065,943.258 766.543,944.517 766.543,945.83L766.543,1020.25C766.543,1021.56 767.065,1022.82 767.993,1023.75C768.921,1024.68 770.18,1025.2 771.493,1025.2L846.403,1025.2C846.827,1025.2 847.241,1025.24 847.641,1025.32C850.006,1019.79 855.504,1015.9 861.903,1015.9C870.458,1015.9 877.403,1022.85 877.403,1031.4C877.403,1039.95 870.458,1046.9 861.903,1046.9C855.504,1046.9 850.006,1043.01 847.641,1037.48Z" style="fill:rgb(40,133,226);fill-opacity:0.67;"/>
    </g>
    <g transform="matrix(2.18809,0,0,2.18809,-125.265,178.741)">
        <g opacity="0.67">
            <path d="M556.152,227.722L565.554,216.121L557.158,216.121C556.799,216.121 556.495,215.997 556.246,215.747C555.996,215.498 555.871,215.194 555.871,214.835C555.871,214.476 556,214.169 556.257,213.911C556.515,213.654 556.815,213.525 557.158,213.525L567.308,213.525C567.792,213.525 568.197,213.689 568.525,214.017C568.852,214.36 569.016,214.773 569.016,215.256C569.016,215.63 568.875,216.005 568.595,216.379L559.31,227.862L567.87,227.862C568.228,227.862 568.532,227.987 568.782,228.237C569.031,228.486 569.156,228.79 569.156,229.149C569.156,229.492 569.031,229.788 568.782,230.038C568.517,230.287 568.213,230.412 567.87,230.412L557.462,230.412C557.01,230.412 556.624,230.252 556.304,229.932C555.985,229.613 555.825,229.238 555.825,228.81C555.825,228.381 555.934,228.018 556.152,227.722Z" style="fill:rgb(40,133,226);fill-rule:nonzero;"/>
            <path d="M573.53,235.51C573.405,235.386 573.311,235.245 573.249,235.09C573.187,234.934 573.156,234.793 573.156,234.669C573.156,234.466 573.187,234.286 573.249,234.131L574.723,230.318L570.372,219.7C570.294,219.513 570.255,219.333 570.255,219.162C570.255,218.803 570.388,218.484 570.653,218.203C570.918,217.938 571.23,217.805 571.588,217.805C571.963,217.805 572.282,217.938 572.547,218.203C572.672,218.328 572.766,218.476 572.828,218.647L576.173,226.927L579.587,218.671C579.852,218.094 580.266,217.805 580.827,217.805C581.186,217.805 581.497,217.938 581.762,218.203C582.028,218.484 582.16,218.803 582.16,219.162C582.16,219.349 582.129,219.513 582.067,219.653L575.681,234.996C575.416,235.604 575.003,235.908 574.442,235.908C574.083,235.908 573.779,235.776 573.53,235.51Z" style="fill:rgb(40,133,226);fill-rule:nonzero;"/>
            <path d="M586.744,219.372C587.758,218.25 588.888,217.689 590.136,217.689L590.252,217.689C590.627,217.689 590.939,217.821 591.188,218.086C591.437,218.351 591.562,218.663 591.562,219.022C591.562,219.396 591.43,219.704 591.165,219.945C590.9,220.187 590.58,220.308 590.206,220.308L590.089,220.308C589.013,220.308 588.085,220.698 587.306,221.477C587.103,221.68 586.916,221.906 586.744,222.156L586.744,229.196C586.744,229.554 586.612,229.866 586.347,230.131C586.066,230.396 585.742,230.529 585.376,230.529C585.01,230.529 584.698,230.4 584.44,230.143C584.183,229.886 584.055,229.57 584.055,229.196L584.055,219.162C584.055,218.803 584.187,218.484 584.452,218.203C584.717,217.938 585.033,217.805 585.399,217.805C585.766,217.805 586.082,217.938 586.347,218.203C586.612,218.468 586.744,218.788 586.744,219.162L586.744,219.372Z" style="fill:rgb(40,133,226);fill-rule:nonzero;"/>
            <path d="M591.936,224.167C591.936,223.06 592.147,222.008 592.568,221.01C593.004,219.981 593.675,219.17 594.579,218.577C595.484,217.985 596.56,217.689 597.807,217.689C599.039,217.689 600.091,217.969 600.964,218.53C601.806,219.076 602.465,219.817 602.941,220.752C603.416,221.688 603.654,222.725 603.654,223.863C603.654,224.237 603.521,224.557 603.256,224.822C603.007,225.071 602.687,225.196 602.297,225.196L594.696,225.196C594.852,226.101 595.226,226.794 595.819,227.278C596.458,227.823 597.339,228.096 598.462,228.096C599.319,228.096 600.091,227.972 600.777,227.722C601.011,227.629 601.253,227.519 601.502,227.395C601.643,227.317 601.822,227.278 602.04,227.278C602.383,227.278 602.672,227.395 602.906,227.629C603.139,227.862 603.256,228.143 603.256,228.471C603.256,228.923 602.999,229.297 602.485,229.593C601.814,229.952 601.175,230.217 600.567,230.388C599.959,230.56 599.195,230.646 598.275,230.646C596.279,230.646 594.724,230.073 593.609,228.927C592.494,227.781 591.936,226.194 591.936,224.167ZM600.941,222.904C600.957,222.904 600.964,222.9 600.964,222.892L600.964,222.881C600.902,222.304 600.73,221.82 600.45,221.431C600.138,220.978 599.744,220.635 599.269,220.402C598.793,220.168 598.314,220.051 597.83,220.051C597.347,220.051 596.856,220.16 596.357,220.378C595.624,220.737 595.117,221.322 594.837,222.132C594.759,222.366 594.704,222.623 594.673,222.904L600.941,222.904Z" style="fill:rgb(40,133,226);fill-rule:nonzero;"/>
            <path d="M605.899,229.196L605.899,219.162C605.899,218.803 606.032,218.484 606.297,218.203C606.562,217.938 606.878,217.805 607.244,217.805C607.611,217.805 607.926,217.938 608.191,218.203C608.456,218.468 608.589,218.788 608.589,219.162L608.589,219.419C609.493,218.577 610.421,218.047 611.372,217.829C611.778,217.735 612.206,217.689 612.659,217.689C613.922,217.689 614.951,218.086 615.746,218.881C616.089,219.224 616.37,219.63 616.588,220.098C616.946,220.83 617.126,221.649 617.126,222.553L617.126,229.196C617.126,229.554 616.993,229.866 616.728,230.131C616.448,230.396 616.124,230.529 615.758,230.529C615.391,230.529 615.079,230.4 614.822,230.143C614.565,229.886 614.436,229.57 614.436,229.196L614.436,222.787C614.436,221.867 614.226,221.197 613.805,220.776C613.43,220.402 612.877,220.214 612.144,220.214C611.442,220.214 610.815,220.39 610.261,220.741C609.708,221.092 609.15,221.602 608.589,222.273L608.589,229.196C608.589,229.554 608.456,229.866 608.191,230.131C607.911,230.396 607.587,230.529 607.221,230.529C606.854,230.529 606.542,230.4 606.285,230.143C606.028,229.886 605.899,229.57 605.899,229.196Z" style="fill:rgb(40,133,226);fill-rule:nonzero;"/>
            <path d="M622.178,235.51C622.053,235.386 621.959,235.245 621.897,235.09C621.835,234.934 621.803,234.793 621.803,234.669C621.803,234.466 621.835,234.286 621.897,234.131L623.37,230.318L619.02,219.7C618.942,219.513 618.903,219.333 618.903,219.162C618.903,218.803 619.036,218.484 619.301,218.203C619.566,217.938 619.878,217.805 620.236,217.805C620.611,217.805 620.93,217.938 621.195,218.203C621.32,218.328 621.414,218.476 621.476,218.647L624.821,226.927L628.235,218.671C628.5,218.094 628.914,217.805 629.475,217.805C629.833,217.805 630.145,217.938 630.41,218.203C630.675,218.484 630.808,218.803 630.808,219.162C630.808,219.349 630.777,219.513 630.714,219.653L624.329,234.996C624.064,235.604 623.651,235.908 623.09,235.908C622.731,235.908 622.427,235.776 622.178,235.51Z" style="fill:rgb(40,133,226);fill-rule:nonzero;"/>
        </g>
    </g>
    <g transform="matrix(0.534087,0,0,0.534087,409.21,-150.863)">
        <g transform="matrix(10.0004,0,0,10.0004,605.109,347.99)">
            <path d="M21.458,16.5C21.458,14.306 19.652,12.5 17.458,12.5L16.958,12.5L16.958,12C16.958,11.451 16.507,11 15.958,11L3.958,11C3.409,11 2.958,11.451 2.958,12L2.958,21.5C2.958,22.871 4.087,24 5.458,24L14.458,24C15.829,24 16.958,22.871 16.958,21.5L16.958,20.5L17.458,20.5C19.652,20.5 21.458,18.694 21.458,16.5ZM17.458,18.5C17.458,18.5 17.207,18.5 17.207,18.5C17.07,18.5 16.958,18.388 16.958,18.251C16.958,18.251 16.958,18.25 16.958,18.25L16.958,14.75C16.958,14.613 17.071,14.5 17.208,14.5L17.458,14.5C18.555,14.5 19.458,15.403 19.458,16.5C19.458,17.597 18.555,18.5 17.458,18.5Z" style="fill:rgb(23,72,121);fill-rule:nonzero;"/>
        </g>
        <g transform="matrix(10.0004,0,0,10.0004,605.109,347.99)">
            <path d="M5.649,2.865C5.729,2.821 5.78,2.737 5.78,2.645C5.78,2.56 5.736,2.481 5.665,2.435L3.3,0.905C3.222,0.859 3.134,0.834 3.043,0.834C2.769,0.834 2.543,1.06 2.543,1.334C2.543,1.361 2.545,1.389 2.55,1.416L2.972,3.946C2.985,4.026 3.036,4.095 3.109,4.13C3.181,4.166 3.266,4.166 3.338,4.13L5.649,2.865Z" style="fill:rgb(23,72,121);fill-rule:nonzero;"/>
        </g>
        <g transform="matrix(10.0004,0,0,10.0004,605.109,347.99)">
            <path d="M3.646,5.094C3.528,5.16 3.483,5.309 3.546,5.429L5.766,9.729C5.852,9.895 6.023,9.999 6.21,9.999L9.21,9.999C9.21,9.999 9.211,9.999 9.211,9.999C9.485,9.999 9.711,9.773 9.711,9.499C9.711,9.415 9.69,9.332 9.649,9.258L6.623,3.758C6.557,3.638 6.404,3.592 6.284,3.658L3.646,5.094Z" style="fill:rgb(23,72,121);fill-rule:nonzero;"/>
        </g>
        <g transform="matrix(10.0004,0,0,10.0004,605.109,347.99)">
            <path d="M13.538,7.293L13.532,7.293C13.309,7.199 13.095,7.082 12.896,6.944C12.854,6.916 12.805,6.9 12.754,6.9C12.664,6.9 12.58,6.949 12.535,7.028L11.293,9.257C11.252,9.331 11.23,9.415 11.23,9.5C11.23,9.774 11.456,10 11.73,10C11.73,10 13.562,10 13.562,10C13.77,10 13.957,9.871 14.03,9.677L14.7,7.893C14.711,7.865 14.716,7.834 14.716,7.804C14.716,7.679 14.623,7.573 14.5,7.556C14.269,7.527 14.041,7.474 13.82,7.4C13.727,7.369 13.633,7.333 13.538,7.293Z" style="fill:rgb(23,72,121);fill-rule:nonzero;"/>
        </g>
        <g transform="matrix(10.0004,0,0,10.0004,605.109,347.99)">
            <path d="M17.017,2.815C16.707,1.416 15.607,0.32 14.206,0.015C14.168,0.006 14.128,0.001 14.089,0.001C13.814,0.001 13.589,0.227 13.589,0.501C13.589,0.599 13.617,0.694 13.671,0.776C14.2,1.582 13.881,2.058 13.318,2.77C13.101,3.017 12.919,3.293 12.776,3.589C12.648,3.86 12.582,4.157 12.582,4.456C12.582,5.313 13.122,6.082 13.927,6.373C14.658,6.745 15.545,6.643 16.172,6.115C17.03,5.251 17.354,3.985 17.017,2.815Z" style="fill:rgb(23,72,121);fill-rule:nonzero;"/>
        </g>
    </g>
    <g transform="matrix(0.843398,0,0,0.843398,141.935,-167.491)">
        <g transform="matrix(112.505,0,0,112.505,1313.27,379.985)">
        </g>
        <text x="863.248px" y="379.985px" style="font-family:'FakePearl-SemiBold', 'FakePearl', sans-serif;font-size:112.505px;fill:rgb(23,72,121);">平面設計</text>
    </g>
    <g transform="matrix(0.88241,0,0,0.88241,23.9574,53.2107)">
        <g opacity="0.69">
            <g transform="matrix(0.738235,0,0,0.738235,-104.347,291.422)">
                <g transform="matrix(0.971963,0,0,0.971963,-59.5514,17.1378)">
                    <path d="M419.932,241C433.224,241 444,251.776 444,265.068L444,323.932C444,337.224 433.224,348 419.932,348L361.068,348C347.776,348 337,337.224 337,323.932L337,265.068C337,251.776 347.776,241 361.068,241L419.932,241Z" style="fill:rgb(35,71,125);"/>
                </g>
                <g transform="matrix(0.834005,0,0,0.834005,-5.67881,57.7664)">
                    <path d="M406.087,241L422.279,241C434.275,241 444,250.725 444,262.721L444,306.49L401.291,306.49L384.505,278.913L406.087,241Z" style="fill:url(#_Linear2);"/>
                </g>
                <g transform="matrix(0.834005,0,0,0.834005,-5.67881,57.7664)">
                    <path d="M383.306,282.51L397.694,306.49L378.152,306.49C376.268,306.49 374.53,305.477 373.602,303.838C372.674,302.199 372.699,300.187 373.668,298.572L383.306,282.51Z" style="fill:url(#_Linear3);"/>
                </g>
                <g transform="matrix(0.834005,0,0,0.834005,-5.67881,57.7664)">
                    <path d="M385.704,348L358.721,348C346.725,348 337,338.275 337,326.279L337,321.789L383.861,241L402.49,241L362.922,308.888L385.704,348Z" style="fill:url(#_Linear4);"/>
                </g>
                <g transform="matrix(0.834005,0,0,0.834005,-5.67881,57.7664)">
                    <path d="M444,311.286L444,326.279C444,338.275 434.275,348 422.279,348L390.5,348L368.917,311.286L444,311.286Z" style="fill:url(#_Linear5);"/>
                </g>
            </g>
            <g transform="matrix(0.738235,0,0,0.738235,-212.371,249.624)">
                <g transform="matrix(0.971963,0,0,0.971963,224.449,73.757)">
                    <path d="M419.932,241C433.224,241 444,251.776 444,265.068L444,323.932C444,337.224 433.224,348 419.932,348L361.068,348C347.776,348 337,337.224 337,323.932L337,265.068C337,251.776 347.776,241 361.068,241L419.932,241Z" style="fill:rgb(74,50,131);"/>
                </g>
                <g transform="matrix(1,0,0,1,60,64)">
                    <g>
                        <g transform="matrix(0.831506,0,0,0.831506,219.297,51.1215)">
                            <path d="M437.497,247.503C441.661,251.667 444,257.314 444,263.202L444,306.526L402.526,306.526L437.497,247.503Z" style="fill:url(#_Linear6);"/>
                        </g>
                        <g transform="matrix(0.831506,0,0,0.831506,219.297,51.1215)">
                            <path d="M343.606,341.599C339.527,337.574 337,331.981 337,325.798L337,321.711L360.422,281.271L379.676,281.271L343.606,341.599Z" style="fill:url(#_Linear7);"/>
                        </g>
                        <g transform="matrix(0.831506,0,0,0.831506,219.297,51.1215)">
                            <path d="M444,311.358L444,325.798C444,338.06 434.06,348 421.798,348L407.824,348L385.689,311.337L444,311.358Z" style="fill:url(#_Linear8);"/>
                        </g>
                        <g transform="matrix(0.831506,0,0,0.831506,219.297,51.1215)">
                            <path d="M403.301,348L359.202,348C354.613,348 350.349,346.608 346.81,344.223L373.663,298.108L403.301,348Z" style="fill:url(#_Linear9);"/>
                        </g>
                        <g transform="matrix(0.831506,0,0,0.831506,219.297,51.1215)">
                            <path d="M381.288,245.244L383.746,241L421.798,241C426.314,241 430.688,242.376 434.359,244.895L408.54,289.689L381.288,245.244Z" style="fill:url(#_Linear10);"/>
                        </g>
                        <g transform="matrix(0.831506,0,0,0.831506,219.297,51.1215)">
                            <path d="M363.314,276.278L379.357,248.578L395.311,276.46L363.314,276.278Z" style="fill:url(#_Linear11);"/>
                        </g>
                    </g>
                    <g transform="matrix(0.892441,-0.515251,0.515251,0.892441,-97.5872,312.593)">
                        <path d="M546.61,285.802C547.47,285.306 548.53,285.306 549.39,285.802C551.378,286.95 555.014,289.05 557.003,290.198C557.863,290.694 558.392,291.612 558.392,292.605L558.392,301.395C558.392,302.388 557.863,303.306 557.003,303.802C555.014,304.95 551.378,307.05 549.39,308.198C548.53,308.694 547.47,308.694 546.61,308.198C544.622,307.05 540.986,304.95 538.997,303.802C538.137,303.306 537.608,302.388 537.608,301.395L537.608,292.605C537.608,291.612 538.137,290.694 538.997,290.198C540.986,289.05 544.622,286.95 546.61,285.802Z" style="fill:url(#_Linear12);"/>
                    </g>
                </g>
            </g>
            <g transform="matrix(0.738235,0,0,0.738235,-220.779,296.871)">
                <g transform="matrix(0.971963,0,0,0.971963,373.449,9.75701)">
                    <path d="M419.932,241C433.224,241 444,251.776 444,265.068L444,323.932C444,337.224 433.224,348 419.932,348L361.068,348C347.776,348 337,337.224 337,323.932L337,265.068C337,251.776 347.776,241 361.068,241L419.932,241Z" style="fill:rgb(126,38,42);"/>
                </g>
                <g transform="matrix(1,0,0,1,55,0)">
                    <g transform="matrix(0.831506,0,0,0.831506,373.297,51.1215)">
                        <path d="M398.724,241L421.798,241C434.06,241 444,250.94 444,263.202L444,319.421L398.724,241Z" style="fill:url(#_Linear13);"/>
                    </g>
                    <g transform="matrix(0.831506,0,0,0.831506,373.297,51.1215)">
                        <path d="M380.003,248.684L384.542,241L392.954,241L443.769,329.014C442.893,335.049 439.59,340.297 434.882,343.737L380.003,248.684Z" style="fill:url(#_Linear14);"/>
                    </g>
                    <g transform="matrix(0.831506,0,0,0.831506,373.297,51.1215)">
                        <path d="M368.491,268.173L377.085,253.624L430.541,346.212C427.858,347.363 424.902,348 421.798,348L414.579,348L368.491,268.173Z" style="fill:url(#_Linear15);"/>
                    </g>
                    <g transform="matrix(0.831506,0,0,0.831506,373.297,51.1215)">
                        <path d="M360.38,293.102C358.36,289.603 358.381,285.287 360.436,281.809C362.806,277.797 365.573,273.112 365.573,273.112L408.809,348L392.075,348C392.075,348 369.069,308.152 360.38,293.102Z" style="fill:url(#_Linear16);"/>
                    </g>
                    <g transform="matrix(0.831506,0,0,0.831506,373.297,51.1215)">
                        <path d="M386.305,348L359.202,348C346.94,348 337,338.06 337,325.798L337,321.483L354.192,292.379L386.305,348Z" style="fill:url(#_Linear17);"/>
                    </g>
                </g>
            </g>
        </g>
    </g>
    <defs>
        <linearGradient id="_Linear2" x1="0" y1="0" x2="1" y2="0" gradientUnits="userSpaceOnUse" gradientTransform="matrix(6.55186e-15,107,-107,6.55186e-15,390.5,241)"><stop offset="0" style="stop-color:rgb(125,210,247);stop-opacity:1"/><stop offset="1" style="stop-color:rgb(93,175,231);stop-opacity:1"/></linearGradient>
        <linearGradient id="_Linear3" x1="0" y1="0" x2="1" y2="0" gradientUnits="userSpaceOnUse" gradientTransform="matrix(6.55186e-15,107,-107,6.55186e-15,390.5,241)"><stop offset="0" style="stop-color:rgb(125,210,247);stop-opacity:1"/><stop offset="1" style="stop-color:rgb(93,175,231);stop-opacity:1"/></linearGradient>
        <linearGradient id="_Linear4" x1="0" y1="0" x2="1" y2="0" gradientUnits="userSpaceOnUse" gradientTransform="matrix(6.55186e-15,107,-107,6.55186e-15,390.5,241)"><stop offset="0" style="stop-color:rgb(125,210,247);stop-opacity:1"/><stop offset="1" style="stop-color:rgb(93,175,231);stop-opacity:1"/></linearGradient>
        <linearGradient id="_Linear5" x1="0" y1="0" x2="1" y2="0" gradientUnits="userSpaceOnUse" gradientTransform="matrix(6.55186e-15,107,-107,6.55186e-15,390.5,241)"><stop offset="0" style="stop-color:rgb(125,210,247);stop-opacity:1"/><stop offset="1" style="stop-color:rgb(93,175,231);stop-opacity:1"/></linearGradient>
        <linearGradient id="_Linear6" x1="0" y1="0" x2="1" y2="0" gradientUnits="userSpaceOnUse" gradientTransform="matrix(6.55186e-15,107,-107,6.55186e-15,390.5,241)"><stop offset="0" style="stop-color:rgb(233,159,249);stop-opacity:1"/><stop offset="1" style="stop-color:rgb(213,118,243);stop-opacity:1"/></linearGradient>
        <linearGradient id="_Linear7" x1="0" y1="0" x2="1" y2="0" gradientUnits="userSpaceOnUse" gradientTransform="matrix(6.55186e-15,107,-107,6.55186e-15,390.5,241)"><stop offset="0" style="stop-color:rgb(233,159,249);stop-opacity:1"/><stop offset="1" style="stop-color:rgb(213,118,243);stop-opacity:1"/></linearGradient>
        <linearGradient id="_Linear8" x1="0" y1="0" x2="1" y2="0" gradientUnits="userSpaceOnUse" gradientTransform="matrix(6.55186e-15,107,-107,6.55186e-15,390.5,241)"><stop offset="0" style="stop-color:rgb(233,159,249);stop-opacity:1"/><stop offset="1" style="stop-color:rgb(213,118,243);stop-opacity:1"/></linearGradient>
        <linearGradient id="_Linear9" x1="0" y1="0" x2="1" y2="0" gradientUnits="userSpaceOnUse" gradientTransform="matrix(6.55186e-15,107,-107,6.55186e-15,390.5,241)"><stop offset="0" style="stop-color:rgb(233,159,249);stop-opacity:1"/><stop offset="1" style="stop-color:rgb(213,118,243);stop-opacity:1"/></linearGradient>
        <linearGradient id="_Linear10" x1="0" y1="0" x2="1" y2="0" gradientUnits="userSpaceOnUse" gradientTransform="matrix(6.55186e-15,107,-107,6.55186e-15,390.5,241)"><stop offset="0" style="stop-color:rgb(233,159,249);stop-opacity:1"/><stop offset="1" style="stop-color:rgb(213,118,243);stop-opacity:1"/></linearGradient>
        <linearGradient id="_Linear11" x1="0" y1="0" x2="1" y2="0" gradientUnits="userSpaceOnUse" gradientTransform="matrix(6.55186e-15,107,-107,6.55186e-15,390.5,241)"><stop offset="0" style="stop-color:rgb(233,159,249);stop-opacity:1"/><stop offset="1" style="stop-color:rgb(213,118,243);stop-opacity:1"/></linearGradient>
        <linearGradient id="_Linear12" x1="0" y1="0" x2="1" y2="0" gradientUnits="userSpaceOnUse" gradientTransform="matrix(-43.1688,74.7706,-74.7706,-43.1688,568.82,259.968)"><stop offset="0" style="stop-color:rgb(233,159,249);stop-opacity:1"/><stop offset="1" style="stop-color:rgb(213,118,243);stop-opacity:1"/></linearGradient>
        <linearGradient id="_Linear13" x1="0" y1="0" x2="1" y2="0" gradientUnits="userSpaceOnUse" gradientTransform="matrix(6.55186e-15,107,-107,6.55186e-15,390.5,241)"><stop offset="0" style="stop-color:rgb(243,172,116);stop-opacity:1"/><stop offset="1" style="stop-color:rgb(233,145,92);stop-opacity:1"/></linearGradient>
        <linearGradient id="_Linear14" x1="0" y1="0" x2="1" y2="0" gradientUnits="userSpaceOnUse" gradientTransform="matrix(6.55186e-15,107,-107,6.55186e-15,390.5,241)"><stop offset="0" style="stop-color:rgb(243,172,116);stop-opacity:1"/><stop offset="1" style="stop-color:rgb(233,145,92);stop-opacity:1"/></linearGradient>
        <linearGradient id="_Linear15" x1="0" y1="0" x2="1" y2="0" gradientUnits="userSpaceOnUse" gradientTransform="matrix(6.55186e-15,107,-107,6.55186e-15,390.5,241)"><stop offset="0" style="stop-color:rgb(243,172,116);stop-opacity:1"/><stop offset="1" style="stop-color:rgb(233,145,92);stop-opacity:1"/></linearGradient>
        <linearGradient id="_Linear16" x1="0" y1="0" x2="1" y2="0" gradientUnits="userSpaceOnUse" gradientTransform="matrix(6.55186e-15,107,-107,6.55186e-15,390.5,241)"><stop offset="0" style="stop-color:rgb(243,172,116);stop-opacity:1"/><stop offset="1" style="stop-color:rgb(233,145,92);stop-opacity:1"/></linearGradient>
        <linearGradient id="_Linear17" x1="0" y1="0" x2="1" y2="0" gradientUnits="userSpaceOnUse" gradientTransform="matrix(6.55186e-15,107,-107,6.55186e-15,390.5,241)"><stop offset="0" style="stop-color:rgb(243,172,116);stop-opacity:1"/><stop offset="1" style="stop-color:rgb(233,145,92);stop-opacity:1"/></linearGradient>
    </defs>
</svg>
