<?xml version="1.0" encoding="UTF-8" standalone="no"?>
<!DOCTYPE svg PUBLIC "-//W3C//DTD SVG 1.1//EN" "http://www.w3.org/Graphics/SVG/1.1/DTD/svg11.dtd">
<svg width="100%" height="100%" viewBox="0 0 1600 1600" version="1.1" xmlns="http://www.w3.org/2000/svg" xmlns:xlink="http://www.w3.org/1999/xlink" xml:space="preserve" xmlns:serif="http://www.serif.com/" style="fill-rule:evenodd;clip-rule:evenodd;stroke-linejoin:round;stroke-miterlimit:2;">
    <g transform="matrix(1.01652,0,0,0.985829,-9.20907e-13,0)">
        <ellipse cx="787" cy="811.5" rx="787" ry="811.5" style="fill:rgb(40,133,226);"/>
    </g>
    <g transform="matrix(7.44718,0,0,7.44718,-5275.21,-6529.27)">
        <path d="M856.856,956.158C856.572,956.7 856.203,957.208 855.749,957.662L830.36,983.071C829.197,984.235 827.619,984.889 825.974,984.889L803.931,984.889L787.846,1009.38C785.967,1012.24 782.12,1013.04 779.26,1011.16C776.4,1009.28 775.603,1005.44 777.481,1002.58L795.402,975.286C796.549,973.54 798.497,972.489 800.585,972.489L823.404,972.489L846.977,948.898C847.264,948.611 847.571,948.358 847.895,948.139C846.938,946.126 846.403,943.875 846.403,941.5C846.403,932.945 853.348,926 861.903,926C870.458,926 877.403,932.945 877.403,941.5C877.403,950.055 870.458,957 861.903,957C860.136,957 858.438,956.704 856.856,956.158ZM847.641,1037.48C847.241,1037.56 846.827,1037.6 846.403,1037.6L771.493,1037.6C766.892,1037.6 762.479,1035.77 759.225,1032.52C755.971,1029.27 754.143,1024.85 754.143,1020.25L754.143,945.83C754.143,941.228 755.971,936.815 759.225,933.562C762.479,930.308 766.892,928.48 771.493,928.48L806.068,928.48C809.49,928.48 812.268,931.258 812.268,934.68C812.268,938.102 809.49,940.88 806.068,940.88L771.493,940.88C770.18,940.88 768.921,941.402 767.993,942.33C767.065,943.258 766.543,944.517 766.543,945.83L766.543,1020.25C766.543,1021.56 767.065,1022.82 767.993,1023.75C768.921,1024.68 770.18,1025.2 771.493,1025.2L846.403,1025.2C846.827,1025.2 847.241,1025.24 847.641,1025.32C850.006,1019.79 855.504,1015.9 861.903,1015.9C870.458,1015.9 877.403,1022.85 877.403,1031.4C877.403,1039.95 870.458,1046.9 861.903,1046.9C855.504,1046.9 850.006,1043.01 847.641,1037.48Z" style="fill:rgb(222,239,255);"/>
    </g>
</svg>
