<?xml version="1.0" encoding="UTF-8" standalone="no"?>
<!DOCTYPE svg PUBLIC "-//W3C//DTD SVG 1.1//EN" "http://www.w3.org/Graphics/SVG/1.1/DTD/svg11.dtd">
<svg width="100%" height="100%" viewBox="0 0 1365 309" version="1.1" xmlns="http://www.w3.org/2000/svg" xmlns:xlink="http://www.w3.org/1999/xlink" xml:space="preserve" xmlns:serif="http://www.serif.com/" style="fill-rule:evenodd;clip-rule:evenodd;stroke-linejoin:round;stroke-miterlimit:2;">
    <g transform="matrix(2.55583,0,0,2.55583,-1927.46,-2366.7)">
        <path d="M856.856,956.158C856.572,956.7 856.203,957.208 855.749,957.662L830.36,983.071C829.197,984.235 827.619,984.889 825.974,984.889L803.931,984.889L787.846,1009.38C785.967,1012.24 782.12,1013.04 779.26,1011.16C776.4,1009.28 775.603,1005.44 777.481,1002.58L795.402,975.286C796.549,973.54 798.497,972.489 800.585,972.489L823.404,972.489L846.977,948.898C847.264,948.611 847.571,948.358 847.895,948.139C846.938,946.126 846.403,943.875 846.403,941.5C846.403,932.945 853.348,926 861.903,926C870.458,926 877.403,932.945 877.403,941.5C877.403,950.055 870.458,957 861.903,957C860.136,957 858.438,956.704 856.856,956.158ZM847.641,1037.48C847.241,1037.56 846.827,1037.6 846.403,1037.6L771.493,1037.6C766.892,1037.6 762.479,1035.77 759.225,1032.52C755.971,1029.27 754.143,1024.85 754.143,1020.25L754.143,945.83C754.143,941.228 755.971,936.815 759.225,933.562C762.479,930.308 766.892,928.48 771.493,928.48L806.068,928.48C809.49,928.48 812.268,931.258 812.268,934.68C812.268,938.102 809.49,940.88 806.068,940.88L771.493,940.88C770.18,940.88 768.921,941.402 767.993,942.33C767.065,943.258 766.543,944.517 766.543,945.83L766.543,1020.25C766.543,1021.56 767.065,1022.82 767.993,1023.75C768.921,1024.68 770.18,1025.2 771.493,1025.2L846.403,1025.2C846.827,1025.2 847.241,1025.24 847.641,1025.32C850.006,1019.79 855.504,1015.9 861.903,1015.9C870.458,1015.9 877.403,1022.85 877.403,1031.4C877.403,1039.95 870.458,1046.9 861.903,1046.9C855.504,1046.9 850.006,1043.01 847.641,1037.48Z" style="fill:white;"/>
    </g>
    <g transform="matrix(12.3592,0,0,12.3592,-6433.73,-2607.04)">
        <path d="M556.152,227.722L565.554,216.121L557.158,216.121C556.799,216.121 556.495,215.997 556.246,215.747C555.996,215.498 555.871,215.194 555.871,214.835C555.871,214.476 556,214.169 556.257,213.911C556.515,213.654 556.815,213.525 557.158,213.525L567.308,213.525C567.792,213.525 568.197,213.689 568.525,214.017C568.852,214.36 569.016,214.773 569.016,215.256C569.016,215.63 568.875,216.005 568.595,216.379L559.31,227.862L567.87,227.862C568.228,227.862 568.532,227.987 568.782,228.237C569.031,228.486 569.156,228.79 569.156,229.149C569.156,229.492 569.031,229.788 568.782,230.038C568.517,230.287 568.213,230.412 567.87,230.412L557.462,230.412C557.01,230.412 556.624,230.252 556.304,229.932C555.985,229.613 555.825,229.238 555.825,228.81C555.825,228.381 555.934,228.018 556.152,227.722Z" style="fill:white;fill-rule:nonzero;"/>
        <path d="M573.53,235.51C573.405,235.386 573.311,235.245 573.249,235.09C573.187,234.934 573.156,234.793 573.156,234.669C573.156,234.466 573.187,234.286 573.249,234.131L574.723,230.318L570.372,219.7C570.294,219.513 570.255,219.333 570.255,219.162C570.255,218.803 570.388,218.484 570.653,218.203C570.918,217.938 571.23,217.805 571.588,217.805C571.963,217.805 572.282,217.938 572.547,218.203C572.672,218.328 572.766,218.476 572.828,218.647L576.173,226.927L579.587,218.671C579.852,218.094 580.266,217.805 580.827,217.805C581.186,217.805 581.497,217.938 581.762,218.203C582.028,218.484 582.16,218.803 582.16,219.162C582.16,219.349 582.129,219.513 582.067,219.653L575.681,234.996C575.416,235.604 575.003,235.908 574.442,235.908C574.083,235.908 573.779,235.776 573.53,235.51Z" style="fill:white;fill-rule:nonzero;"/>
        <path d="M586.744,219.372C587.758,218.25 588.888,217.689 590.136,217.689L590.252,217.689C590.627,217.689 590.939,217.821 591.188,218.086C591.437,218.351 591.562,218.663 591.562,219.022C591.562,219.396 591.43,219.704 591.165,219.945C590.9,220.187 590.58,220.308 590.206,220.308L590.089,220.308C589.013,220.308 588.085,220.698 587.306,221.477C587.103,221.68 586.916,221.906 586.744,222.156L586.744,229.196C586.744,229.554 586.612,229.866 586.347,230.131C586.066,230.396 585.742,230.529 585.376,230.529C585.01,230.529 584.698,230.4 584.44,230.143C584.183,229.886 584.055,229.57 584.055,229.196L584.055,219.162C584.055,218.803 584.187,218.484 584.452,218.203C584.717,217.938 585.033,217.805 585.399,217.805C585.766,217.805 586.082,217.938 586.347,218.203C586.612,218.468 586.744,218.788 586.744,219.162L586.744,219.372Z" style="fill:white;fill-rule:nonzero;"/>
        <path d="M591.936,224.167C591.936,223.06 592.147,222.008 592.568,221.01C593.004,219.981 593.675,219.17 594.579,218.577C595.484,217.985 596.56,217.689 597.807,217.689C599.039,217.689 600.091,217.969 600.964,218.53C601.806,219.076 602.465,219.817 602.941,220.752C603.416,221.688 603.654,222.725 603.654,223.863C603.654,224.237 603.521,224.557 603.256,224.822C603.007,225.071 602.687,225.196 602.297,225.196L594.696,225.196C594.852,226.101 595.226,226.794 595.819,227.278C596.458,227.823 597.339,228.096 598.462,228.096C599.319,228.096 600.091,227.972 600.777,227.722C601.011,227.629 601.253,227.519 601.502,227.395C601.643,227.317 601.822,227.278 602.04,227.278C602.383,227.278 602.672,227.395 602.906,227.629C603.139,227.862 603.256,228.143 603.256,228.471C603.256,228.923 602.999,229.297 602.485,229.593C601.814,229.952 601.175,230.217 600.567,230.388C599.959,230.56 599.195,230.646 598.275,230.646C596.279,230.646 594.724,230.073 593.609,228.927C592.494,227.781 591.936,226.194 591.936,224.167ZM600.941,222.904C600.957,222.904 600.964,222.9 600.964,222.892L600.964,222.881C600.902,222.304 600.73,221.82 600.45,221.431C600.138,220.978 599.744,220.635 599.269,220.402C598.793,220.168 598.314,220.051 597.83,220.051C597.347,220.051 596.856,220.16 596.357,220.378C595.624,220.737 595.117,221.322 594.837,222.132C594.759,222.366 594.704,222.623 594.673,222.904L600.941,222.904Z" style="fill:white;fill-rule:nonzero;"/>
        <path d="M605.899,229.196L605.899,219.162C605.899,218.803 606.032,218.484 606.297,218.203C606.562,217.938 606.878,217.805 607.244,217.805C607.611,217.805 607.926,217.938 608.191,218.203C608.456,218.468 608.589,218.788 608.589,219.162L608.589,219.419C609.493,218.577 610.421,218.047 611.372,217.829C611.778,217.735 612.206,217.689 612.659,217.689C613.922,217.689 614.951,218.086 615.746,218.881C616.089,219.224 616.37,219.63 616.588,220.098C616.946,220.83 617.126,221.649 617.126,222.553L617.126,229.196C617.126,229.554 616.993,229.866 616.728,230.131C616.448,230.396 616.124,230.529 615.758,230.529C615.391,230.529 615.079,230.4 614.822,230.143C614.565,229.886 614.436,229.57 614.436,229.196L614.436,222.787C614.436,221.867 614.226,221.197 613.805,220.776C613.43,220.402 612.877,220.214 612.144,220.214C611.442,220.214 610.815,220.39 610.261,220.741C609.708,221.092 609.15,221.602 608.589,222.273L608.589,229.196C608.589,229.554 608.456,229.866 608.191,230.131C607.911,230.396 607.587,230.529 607.221,230.529C606.854,230.529 606.542,230.4 606.285,230.143C606.028,229.886 605.899,229.57 605.899,229.196Z" style="fill:white;fill-rule:nonzero;"/>
        <path d="M622.178,235.51C622.053,235.386 621.959,235.245 621.897,235.09C621.835,234.934 621.803,234.793 621.803,234.669C621.803,234.466 621.835,234.286 621.897,234.131L623.37,230.318L619.02,219.7C618.942,219.513 618.903,219.333 618.903,219.162C618.903,218.803 619.036,218.484 619.301,218.203C619.566,217.938 619.878,217.805 620.236,217.805C620.611,217.805 620.93,217.938 621.195,218.203C621.32,218.328 621.414,218.476 621.476,218.647L624.821,226.927L628.235,218.671C628.5,218.094 628.914,217.805 629.475,217.805C629.833,217.805 630.145,217.938 630.41,218.203C630.675,218.484 630.808,218.803 630.808,219.162C630.808,219.349 630.777,219.513 630.714,219.653L624.329,234.996C624.064,235.604 623.651,235.908 623.09,235.908C622.731,235.908 622.427,235.776 622.178,235.51Z" style="fill:white;fill-rule:nonzero;"/>
    </g>
</svg>
